<svg width="22" height="22" viewBox="0 0 22 22" fill="none" xmlns="http://www.w3.org/2000/svg">
<path d="M10.998 0C4.92394 0 0 4.92551 0 11.0004C0 17.0745 4.92394 22 10.998 22C17.0753 22 22 17.0737 22 11.0004C22 4.92551 17.0753 0 10.998 0ZM15.7277 13.9788L13.9757 15.7284C13.9757 15.7284 11.2041 12.7547 10.9972 12.7547C10.7935 12.7547 8.02117 15.7284 8.02117 15.7284L6.26841 13.9788C6.26841 13.9788 9.24527 11.2474 9.24527 11.0043C9.24527 10.7573 6.26841 8.0251 6.26841 8.0251L8.02117 6.27155C8.02117 6.27155 10.8163 9.24684 10.9972 9.24684C11.1798 9.24684 13.9757 6.27155 13.9757 6.27155L15.7277 8.0251C15.7277 8.0251 12.75 10.7966 12.75 11.0043C12.75 11.2018 15.7277 13.9788 15.7277 13.9788Z" fill="#BF0000"/>
</svg>
