<svg width="25" height="25" viewBox="0 0 25 25" fill="none" xmlns="http://www.w3.org/2000/svg">
<path d="M23.4992 14.15C24.4242 13.65 24.9242 13.05 24.9992 12.3C24.9492 11.575 24.4492 10.95 23.5242 10.45C22.5992 9.95 21.5742 9.725 20.4742 9.725H16.9742L11.4242 0.25C11.3492 0.1 11.1992 0 10.9992 0H8.19917C8.04917 0 7.89917 0.075 7.79917 0.2C7.69917 0.35 7.67417 0.5 7.72417 0.675L10.2242 9.725H4.54917L2.99917 6.875C2.99917 6.85 2.97417 6.825 2.92417 6.775C2.82417 6.675 2.69917 6.625 2.57417 6.625L0.499169 6.65C0.349169 6.675 0.224169 6.725 0.124169 6.825C0.0241687 6.975 -0.0258313 7.125 -0.000831299 7.25L0.674169 12.325L-0.000831299 17.4C-0.0258313 17.55 0.0241687 17.7 0.124169 17.825L0.149169 17.85C0.249169 17.975 0.374169 18.025 0.499169 18.025H2.59917C2.79917 18.025 2.94917 17.925 3.02417 17.75L4.57417 14.9H10.2492L7.72417 23.975C7.67417 24.125 7.69917 24.275 7.77417 24.4C7.79917 24.425 7.79917 24.45 7.84917 24.5C7.92417 24.6 8.02417 24.65 8.12417 24.65L10.5742 25.025C10.7992 25.05 10.9742 24.975 11.0742 24.775L16.9492 14.925H20.4742C21.5492 14.9 22.5742 14.65 23.4992 14.15Z" fill="#FABC10"/>
</svg>
