<svg width="46" height="34" viewBox="0 0 46 34" fill="none" xmlns="http://www.w3.org/2000/svg">
<path d="M45.0038 9.94011H41.6301C41.3731 9.94011 41.1262 10.0394 40.9407 10.2171L40.2206 10.907C39.0066 8.09814 37.2651 5.3205 34.9128 2.44484C33.6413 0.891046 31.7609 0 29.7534 0H16.2465C14.2387 0 12.3583 0.891153 11.0875 2.44494C8.66096 5.41105 6.95408 8.12179 5.7689 10.8971L5.05938 10.2171C4.87391 10.0394 4.62686 9.94011 4.3699 9.94011H0.996408C0.446056 9.94011 0 10.3862 0 10.9365V13.2431C0 13.769 0.408876 14.2042 0.933766 14.2375L4.40133 14.4559C3.87739 15.9868 3.46831 18.2683 3.46831 21.4857C3.46831 24.2774 4.0259 26.1122 4.99632 27.3001V32.6746C4.99632 33.1354 5.36993 33.5089 5.83079 33.5089H9.66909C10.1302 33.5089 10.5039 33.1354 10.5039 32.6746V29.3371H35.4962V32.6746C35.4962 33.1354 35.8699 33.5089 36.3308 33.5089H40.1691C40.63 33.5089 41.0037 33.1354 41.0037 32.6746V27.3001C41.9739 26.1122 42.5318 24.2774 42.5318 21.4857C42.5318 18.2683 42.1227 15.9868 41.5988 14.4559L45.0663 14.2375C45.5911 14.2042 46 13.769 46 13.2431V10.9365C46 10.3862 45.5542 9.94011 45.0038 9.94011ZM13.9352 4.77451C14.5048 4.07842 15.3472 3.67903 16.2465 3.67903H29.7534C30.6527 3.67903 31.4955 4.07842 32.0649 4.77451C33.7105 6.78618 35.0101 8.71135 36.0145 10.6291L9.96248 10.634C10.9449 8.75887 12.2519 6.8321 13.9352 4.77451ZM11.0962 25.2557C9.18575 25.2557 7.63717 24.6317 7.63717 23.118C7.63717 21.6044 8.19903 20.377 10.1094 20.377C12.0197 20.377 14.555 21.6044 14.555 23.118C14.555 24.6316 13.0064 25.2557 11.0962 25.2557ZM26.6259 24.9402H19.3743C18.281 24.9402 17.3917 24.0509 17.3917 22.9578C17.3917 22.6512 17.6404 22.4025 17.9472 22.4025H28.0533C28.36 22.4025 28.6084 22.6512 28.6084 22.9578C28.6084 24.051 27.7191 24.9402 26.6259 24.9402ZM34.9039 25.2557C32.9935 25.2557 31.4449 24.6317 31.4449 23.118C31.4449 21.6044 33.9805 20.377 35.8905 20.377C37.8009 20.377 38.3628 21.6044 38.3628 23.118C38.3628 24.6316 36.8144 25.2557 34.9039 25.2557Z" fill="#FABC10"/>
</svg>
