<svg width="46" height="46" viewBox="0 0 46 46" fill="none" xmlns="http://www.w3.org/2000/svg">
<path d="M45.6213 5.88794C46.2529 3.7752 46.1043 2.14432 45.1012 0.921162C43.9496 -0.0796064 42.2778 -0.264934 40.1602 0.365179C38.0426 0.995293 36.185 2.18139 34.5504 3.81227L29.3493 9.00144L7.02161 3.18216C6.68725 3.07096 6.31574 3.14509 6.01854 3.44161L1.85764 7.59295C1.63474 7.81534 1.52329 8.14893 1.56044 8.48252C1.63474 8.85318 1.82049 9.11264 2.15485 9.29796L19.3185 19.0092L10.8853 27.4231L4.34675 25.4957C4.3096 25.4586 4.2353 25.4586 4.08669 25.4586C3.78949 25.4586 3.52943 25.5698 3.34368 25.7551L0.297207 28.8686C0.111453 29.1281 0 29.3876 0 29.6841C0.0743017 30.0547 0.222905 30.3513 0.44581 30.4995L8.99061 37.023L15.5292 45.5481C15.7149 45.8076 16.0121 45.9558 16.3465 45.9929H16.4208C16.7551 46.03 17.0152 45.9188 17.2009 45.7334L20.3216 42.6199C20.6188 42.3234 20.6931 41.9528 20.5445 41.5821L18.6127 35.0586L27.0459 26.6447L36.7794 43.8431C36.928 44.1396 37.1881 44.325 37.4853 44.3991C37.5596 44.3991 37.5968 44.4361 37.7454 44.4361C38.0054 44.4732 38.2283 44.3991 38.3769 44.2508L42.575 41.1744C42.9465 40.8779 43.0951 40.5072 42.9465 40.0624L37.0395 16.7482L42.2778 11.5219C43.8381 9.89101 44.9898 8.00067 45.6213 5.88794Z" fill="#FABC10"/>
</svg>
