<svg width="46" height="46" viewBox="0 0 46 46" fill="none" xmlns="http://www.w3.org/2000/svg">
<path d="M44.2494 9.21496L34.9532 6.52719V42.3695C34.9532 42.5486 34.9428 42.7251 34.9236 42.8991C36.0633 43.0114 37.1569 42.3029 37.4869 41.1647L45.9036 12.2126C46.276 10.9288 45.5354 9.58642 44.2494 9.21496Z" fill="#FABC10"/>
<path d="M13.6679 10.5132C12.6747 10.9459 11.7862 11.5735 11.0493 12.3472H12.8443C13.0769 11.6627 13.354 11.0476 13.6679 10.5132Z" fill="#FABC10"/>
<path d="M12.4049 13.9632H9.85453C9.32978 14.8985 8.98585 15.9478 8.87354 17.0649H12.034C12.0761 15.9592 12.2033 14.9171 12.4049 13.9632Z" fill="#FABC10"/>
<path d="M22.6922 12.3472C21.9553 11.5737 21.067 10.9461 20.0737 10.5133C20.3877 11.0476 20.6648 11.6627 20.8974 12.3472H22.6922Z" fill="#FABC10"/>
<path d="M11.0491 23.3984C11.7859 24.1721 12.6744 24.7997 13.6677 25.2324C13.3537 24.698 13.0766 24.083 12.844 23.3984H11.0491Z" fill="#FABC10"/>
<path d="M20.0878 17.0648C20.0377 15.9348 19.885 14.8884 19.66 13.9631H14.0814C13.8563 14.8884 13.7035 15.9349 13.6536 17.0648H20.0878Z" fill="#FABC10"/>
<path d="M16.8706 9.84656C16.0707 9.84656 15.2215 10.7897 14.5938 12.347H19.1479C18.52 10.7897 17.6708 9.84656 16.8706 9.84656Z" fill="#FABC10"/>
<path d="M12.0339 18.6808H8.87354C8.98585 19.7979 9.32978 20.8473 9.85453 21.7825H12.4049C12.2034 20.8286 12.0761 19.7864 12.0339 18.6808Z" fill="#FABC10"/>
<path d="M21.7077 17.0648H24.8679C24.7556 15.9477 24.4117 14.8983 23.8869 13.9631H21.3367C21.5382 14.9171 21.6656 15.9592 21.7077 17.0648Z" fill="#FABC10"/>
<path d="M16.8707 25.8991C17.6707 25.8991 18.5201 24.956 19.1479 23.3987H14.5938C15.2216 24.956 16.0708 25.8991 16.8707 25.8991Z" fill="#FABC10"/>
<path d="M21.3367 21.7825H23.8869C24.4117 20.8472 24.7556 19.7979 24.8679 18.6808H21.7077C21.6657 19.7864 21.5383 20.8286 21.3367 21.7825Z" fill="#FABC10"/>
<path d="M8.47487 32.8565H7.08716V35.4942H8.47487C9.57292 35.4942 10.1296 35.0431 10.1296 34.1531C10.1296 33.2926 9.57299 32.8565 8.47487 32.8565Z" fill="#FABC10"/>
<path d="M12.9465 35.7344H14.8635L13.8956 33.6455L12.9465 35.7344Z" fill="#FABC10"/>
<path d="M30.1057 0H3.63597C1.63115 0 0 1.62864 0 3.63054V42.3695C0 44.3714 1.63115 46 3.63597 46H30.1057C32.1105 46 33.7415 44.3714 33.7415 42.3695V3.63054C33.7414 1.62864 32.1105 0 30.1057 0ZM16.8706 8.23054C22.1952 8.23054 26.5271 12.556 26.5271 17.8727C26.5271 23.1893 22.1952 27.5149 16.8706 27.5149C11.5461 27.5149 7.21436 23.1895 7.21436 17.8727C7.21436 12.5562 11.5461 8.23054 16.8706 8.23054ZM7.08722 36.7608V38.2907C7.08722 38.6248 6.81592 38.8958 6.48125 38.8958H6.42426C6.08966 38.8958 5.81829 38.6249 5.81829 38.2907V32.1941C5.81829 31.86 6.08959 31.589 6.42426 31.589H8.475C10.2784 31.589 11.3987 32.5715 11.3987 34.153C11.3987 35.7616 10.2784 36.7608 8.475 36.7608H7.08722V36.7608ZM17.2907 38.6163C17.1794 38.7904 16.9867 38.8958 16.78 38.8958H16.709C16.4724 38.8958 16.2575 38.7582 16.1586 38.5436L15.4476 37.0009H12.3708L11.6685 38.5413C11.57 38.7571 11.3545 38.8956 11.117 38.8956H11.0366C10.8302 38.8956 10.6381 38.7909 10.5266 38.6175C10.4152 38.4442 10.3997 38.2261 10.4855 38.0387L13.2807 31.942C13.3794 31.7268 13.5947 31.5889 13.8317 31.5889H13.8897C13.89 31.5889 13.8905 31.5889 13.8908 31.5889H13.9501C14.1862 31.5889 14.4006 31.7257 14.4999 31.9396L17.3299 38.0362C17.4167 38.2235 17.402 38.4422 17.2907 38.6163ZM19.9841 38.8958C19.0921 38.8958 18.148 38.5198 17.5202 37.9146C17.4033 37.8017 17.3365 37.6466 17.3353 37.4844C17.3339 37.3219 17.398 37.1658 17.513 37.0512L17.5514 37.0129C17.7878 36.7773 18.1704 36.7772 18.407 37.0124C18.7781 37.3812 19.4119 37.629 19.9842 37.629C20.6244 37.629 21.3719 37.4224 21.3719 36.84C21.3768 36.2787 21.037 36.0867 19.9433 35.7554C18.9742 35.463 17.6484 35.0627 17.6484 33.5127C17.6484 32.3621 18.6659 31.5892 20.1802 31.5892C20.832 31.5892 21.5548 31.7807 22.0666 32.0891C22.2053 32.1726 22.3048 32.3084 22.3428 32.4658C22.3807 32.6232 22.3537 32.7891 22.2681 32.9267L22.2433 32.9664C22.0687 33.2467 21.7013 33.3356 21.4176 33.166C21.1079 32.9809 20.6107 32.8566 20.1803 32.8566C19.5978 32.8566 18.9175 33.0285 18.9175 33.5127C18.9175 34.0369 19.2508 34.2214 20.3217 34.5448C21.3064 34.8421 22.6532 35.2486 22.6411 36.844C22.6412 38.0694 21.5733 38.8958 19.9841 38.8958ZM25.2667 38.8958C24.3745 38.8958 23.4303 38.5198 22.8026 37.9144C22.6857 37.8017 22.619 37.6469 22.6177 37.4848C22.6162 37.3227 22.68 37.1666 22.7946 37.0518L22.8329 37.0136C23.0692 36.7772 23.4524 36.7768 23.6893 37.0123C24.0604 37.381 24.6944 37.6288 25.2668 37.6288C25.9068 37.6288 26.6542 37.4222 26.6542 36.8398C26.6588 36.2786 26.3191 36.0866 25.2256 35.7552C24.2565 35.4627 22.9307 35.0622 22.9307 33.5126C22.9307 32.3621 23.9483 31.5891 25.4626 31.5891C26.1143 31.5891 26.8372 31.7806 27.3491 32.089C27.4885 32.1729 27.5881 32.3092 27.6258 32.4672C27.6634 32.6254 27.6356 32.7918 27.549 32.9292L27.5239 32.969C27.3484 33.2474 26.9822 33.3347 26.6998 33.1659C26.3903 32.9809 25.8931 32.8566 25.4626 32.8566C24.8799 32.8566 24.1995 33.0284 24.1995 33.5126C24.1995 34.0368 24.533 34.2214 25.6037 34.5447C26.5885 34.842 27.9354 35.2485 27.923 36.844C27.923 38.0694 26.8555 38.8958 25.2667 38.8958Z" fill="#FABC10"/>
<path d="M13.6536 18.6808C13.7036 19.8108 13.8564 20.8573 14.0814 21.7825H19.66C19.8849 20.8572 20.0377 19.8109 20.0878 18.6808H13.6536Z" fill="#FABC10"/>
<path d="M20.0737 25.2323C21.067 24.7996 21.9555 24.1719 22.6922 23.3984H20.8974C20.6648 24.083 20.3877 24.6979 20.0737 25.2323Z" fill="#FABC10"/>
</svg>
