<svg width="179" height="32" viewBox="0 0 179 32" fill="none" xmlns="http://www.w3.org/2000/svg">
<g clip-path="url(#clip0)">
<path d="M6.60923 16.9043H1.23923H0.895C0.619615 16.9043 0.413077 16.8348 0.206538 16.7652C0.0688462 16.6261 0 16.487 0 16.2783C0 15.9304 0.137692 15.7217 0.481923 15.6522C0.757308 15.5826 0.895 15.513 0.963846 15.513C1.03269 15.513 1.03269 15.4435 1.10154 15.3739C1.17038 15.2348 1.23923 15.0261 1.23923 14.7478V2.50435C1.23923 2.22609 1.17038 2.01739 1.10154 1.87826C1.03269 1.87826 0.963846 1.80869 0.963846 1.80869C0.895 1.80869 0.757308 1.73913 0.481923 1.66956C0.137692 1.53043 0 1.32174 0 0.973911C0 0.765216 0.0688462 0.626085 0.206538 0.486955C0.344231 0.347824 0.619615 0.347824 0.895 0.347824H1.23923H6.60923H6.88462C7.43538 0.347824 7.71077 0.55652 7.71077 0.973911C7.71077 1.32174 7.57308 1.53043 7.22885 1.6L6.88462 1.73913C6.67808 1.80869 6.60923 2.08695 6.60923 2.50435V14.6783C6.60923 15.1652 6.74692 15.3739 6.95346 15.513L7.29769 15.6522C7.57308 15.7217 7.77962 16 7.77962 16.2783C7.77962 16.6957 7.50423 16.9043 6.95346 16.9043H6.60923ZM7.64192 7.86087H9.63846V2.50435C9.63846 2.01739 9.50077 1.80869 9.29423 1.66956L8.88115 1.53043C8.60577 1.46087 8.39923 1.18261 8.39923 0.904346C8.39923 0.486955 8.67462 0.278259 9.29423 0.278259H9.63846H15.0085H15.3527C15.9723 0.278259 16.2477 0.486955 16.2477 0.904346C16.2477 1.25217 16.11 1.46087 15.7658 1.53043C15.4904 1.6 15.3527 1.66956 15.2838 1.66956C15.215 1.66956 15.215 1.73913 15.1462 1.80869C15.0773 1.94782 15.0085 2.15652 15.0085 2.43478V14.5391C15.0085 14.9565 15.1462 15.2348 15.3527 15.3739L15.7658 15.513C16.11 15.6522 16.2477 15.8609 16.2477 16.2087C16.2477 16.6261 15.9723 16.8348 15.3527 16.8348H15.0085H9.63846H9.29423C8.74346 16.8348 8.46808 16.6261 8.46808 16.2087C8.46808 15.8609 8.60577 15.6522 8.95 15.513L9.36308 15.3739C9.56962 15.3043 9.70731 15.0261 9.70731 14.5391V9.04348H7.71077V7.86087H7.64192Z" fill="white"/>
<path d="M24.9911 16.9043H19.6211H19.2769C19.0015 16.9043 18.795 16.8348 18.5884 16.7652C18.4507 16.6261 18.3819 16.487 18.3819 16.2783C18.3819 15.9304 18.5196 15.7217 18.8638 15.6522C19.1392 15.5826 19.2769 15.513 19.3457 15.513C19.4146 15.513 19.4146 15.4435 19.4834 15.3739C19.5523 15.2348 19.6211 15.0261 19.6211 14.7478V2.50435C19.6211 2.22609 19.5523 2.01739 19.4834 1.87826C19.4146 1.80869 19.4146 1.73913 19.3457 1.73913C19.2769 1.73913 19.1392 1.66956 18.8638 1.6C18.5196 1.46087 18.3819 1.25217 18.3819 0.973911C18.3819 0.765215 18.4507 0.626085 18.5884 0.486955C18.7261 0.347824 19.0015 0.347824 19.2769 0.347824H19.6211H24.9911H25.3354C25.6107 0.347824 25.8173 0.417389 26.0238 0.486955C26.2304 0.55652 26.2304 0.765215 26.2304 0.973911C26.2304 1.32174 26.0927 1.53043 25.7484 1.6C25.4731 1.66956 25.3354 1.73913 25.2665 1.73913C25.1977 1.73913 25.1977 1.80869 25.1288 1.87826C25.06 2.01739 24.9911 2.22609 24.9911 2.50435V14.6783C24.9911 14.9565 25.06 15.1652 25.1288 15.3043C25.1977 15.3739 25.1977 15.4435 25.2665 15.4435C25.3354 15.4435 25.4731 15.513 25.7484 15.5826C26.0927 15.7217 26.2304 15.9304 26.2304 16.2087C26.2304 16.4174 26.1615 16.5565 26.0238 16.6957C25.8861 16.8348 25.6107 16.8348 25.3354 16.8348H24.9911V16.9043Z" fill="white"/>
<path d="M34.4919 0V1.32174C33.8035 1.46087 33.4592 2.08696 33.4592 2.9913V14.3304C33.4592 14.7478 33.5281 15.0957 33.6658 15.3043C33.8035 15.513 34.01 15.6522 34.3542 15.7913V17.1826C34.0788 17.1826 33.8723 17.1826 33.6658 17.113C33.4592 17.0435 33.1838 16.9739 32.8396 16.9043C32.0135 16.6261 31.2562 16.1391 30.5677 15.5826C29.8792 15.0261 29.3285 14.2609 28.8465 13.4261C28.1581 12.1043 27.8138 10.5739 27.8138 8.76522C27.8138 7.02609 28.0892 5.49565 28.7088 4.17391C29.3285 2.85217 30.2235 1.8087 31.325 1.04348C32.0135 0.626087 32.7019 0.278261 33.4592 0.0695652C33.7346 0.0695652 34.0788 0 34.4919 0ZM40.9635 14.887C40.6192 15.2348 40.2061 15.513 39.6554 15.8609C39.1046 16.2087 38.6227 16.487 38.1408 16.6261C37.7277 16.7652 37.2458 16.9043 36.695 17.0435C36.1442 17.1826 35.7311 17.1826 35.3181 17.1826V15.7913C35.5246 15.7217 35.7311 15.6522 35.8688 15.5826C36.0065 15.513 36.0754 15.3739 36.1442 15.2348C36.2819 14.9565 36.3508 14.6783 36.3508 14.2609V10.713C36.3508 10.3652 36.2819 10.1565 36.1442 10.0174C36.0754 9.94783 36.0065 9.87826 36.0065 9.87826C35.9377 9.87826 35.7311 9.8087 35.4558 9.73913C35.0427 9.66957 34.905 9.3913 34.905 9.04348C34.905 8.83478 34.9738 8.69565 35.1804 8.55652C35.3869 8.41739 35.6623 8.41739 36.0065 8.41739H36.4196H40.8258C41.17 8.41739 41.4454 8.48696 41.5831 8.55652C41.7208 8.62609 41.7896 8.83478 41.7896 9.11304C41.7896 9.25217 41.7896 9.3913 41.7208 9.53043C41.6519 9.66957 41.5831 9.73913 41.3765 9.87826C41.2388 10.0174 41.1011 10.087 41.1011 10.2261C41.0323 10.2957 41.0323 10.5043 41.0323 10.7826V14.887H40.9635ZM35.5246 1.32174V0C36.8327 0.13913 37.9342 0.347826 38.7604 0.695652C39.0358 0.834783 39.1735 0.834783 39.3111 0.834783C39.4488 0.834783 39.5177 0.834783 39.5865 0.765217C39.6554 0.695652 39.7931 0.556522 39.9996 0.278261C40.1373 0.0695652 40.3438 0 40.5504 0C40.7569 0 40.9635 0.0695652 41.0323 0.208696C41.1011 0.347826 41.17 0.556522 41.17 0.834783V5.56522C41.17 6.1913 40.9635 6.46957 40.4815 6.46957C40.275 6.46957 40.0685 6.4 39.9996 6.26087C39.8619 6.12174 39.7931 5.91304 39.7242 5.56522C39.5865 5.07826 39.38 4.5913 39.1046 3.96522C38.8292 3.33913 38.485 2.85217 38.2096 2.50435C37.8654 2.08696 37.5212 1.8087 37.1081 1.6C36.695 1.3913 36.0754 1.32174 35.5246 1.32174Z" fill="white"/>
<path d="M50.3954 16.9043H45.0254H44.6811C44.4058 16.9043 44.1992 16.8348 43.9927 16.7652C43.855 16.6261 43.7861 16.487 43.7861 16.2783C43.7861 15.9304 43.9238 15.7217 44.2681 15.6522C44.5434 15.5826 44.6811 15.513 44.75 15.513C44.8188 15.513 44.8188 15.4435 44.8877 15.3739C44.9565 15.2348 45.0254 15.0261 45.0254 14.7478V2.50435C45.0254 2.22609 44.9565 2.01739 44.8877 1.87826C44.8188 1.80869 44.8188 1.73913 44.75 1.73913C44.6811 1.73913 44.5434 1.66956 44.2681 1.6C43.9238 1.46087 43.7861 1.25217 43.7861 0.973911C43.7861 0.765216 43.855 0.626085 43.9927 0.486955C44.1304 0.347824 44.4058 0.347824 44.6811 0.347824H45.0254H50.3954H50.7396C51.2904 0.347824 51.5658 0.55652 51.5658 0.973911C51.5658 1.32174 51.4281 1.53043 51.0838 1.6L50.7396 1.73913C50.5331 1.80869 50.3954 2.08695 50.3954 2.57391V14.7478C50.3954 15.2348 50.5331 15.4435 50.7396 15.5826L51.0838 15.7217C51.3592 15.7913 51.5658 16.0696 51.5658 16.3478C51.5658 16.7652 51.2904 16.9739 50.7396 16.9739H50.3954V16.9043ZM51.4281 7.86087H53.4246V2.50435C53.4246 2.01739 53.2869 1.80869 53.0804 1.66956L52.6673 1.53043C52.3919 1.46087 52.1854 1.18261 52.1854 0.904346C52.1854 0.486955 52.4607 0.278259 53.0804 0.278259H53.4246H58.7946H59.1388C59.7584 0.278259 60.0338 0.486955 60.0338 0.904346C60.0338 1.25217 59.8961 1.46087 59.5519 1.53043C59.2765 1.6 59.1388 1.66956 59.07 1.66956C59.0011 1.66956 59.0011 1.73913 58.9323 1.80869C58.8634 1.94782 58.7946 2.15652 58.7946 2.43478V14.5391C58.7946 14.9565 58.9323 15.2348 59.1388 15.3739L59.5519 15.513C59.8961 15.6522 60.0338 15.8609 60.0338 16.2087C60.0338 16.6261 59.7584 16.8348 59.1388 16.8348H58.7946H53.4246H53.0115C52.4607 16.8348 52.1854 16.6261 52.1854 16.2087C52.1854 15.8609 52.3231 15.6522 52.6673 15.513L53.0804 15.3739C53.2869 15.3043 53.4246 15.0261 53.4246 14.5391V9.04348H51.4281V7.86087Z" fill="white"/>
<path d="M72.4262 3.40869L73.0458 5.91304L70.9115 13.7739C70.8427 13.9826 70.8427 14.1913 70.8427 14.4C70.8427 14.887 71.0492 15.3043 71.5312 15.513L71.9442 15.7217C72.2196 15.8609 72.3573 16.0696 72.3573 16.3478C72.3573 16.7652 72.0819 16.9739 71.4623 16.9739H68.3642C68.0889 16.9739 67.8135 16.9043 67.6758 16.7652C67.4692 16.6261 67.4004 16.487 67.4004 16.2783C67.4004 16.0696 67.6069 15.8609 67.9512 15.7217C68.2954 15.5826 68.5019 15.4435 68.7085 15.3043C68.8462 15.1652 68.9839 15.0261 69.1904 14.8174C69.3969 14.4696 69.6035 14.0522 69.7412 13.4957L72.4262 3.40869ZM73.2523 0.347824H78.1404L81.5139 14.6087C81.5827 14.887 81.6515 15.0957 81.7204 15.3043C81.7892 15.4435 81.9269 15.5826 82.2023 15.6522C82.4089 15.7217 82.5465 15.8609 82.6154 15.9304C82.6842 16 82.7531 16.1391 82.7531 16.2783C82.7531 16.6957 82.4089 16.9043 81.7892 16.9043H75.7308C75.4554 16.9043 75.3177 16.8348 75.18 16.6957C75.0423 16.5565 74.9735 16.4174 74.9735 16.2087C74.9735 16.0696 74.9735 15.9304 75.0423 15.8609C75.1112 15.7913 75.2489 15.6522 75.4554 15.5826C75.5931 15.513 75.7308 15.4435 75.7996 15.3043C75.8685 15.2348 75.8685 15.0957 75.8685 14.9565C75.8685 14.8174 75.8685 14.6783 75.7996 14.6087L75.3865 12.8696H72.0131L72.3573 11.4087H75.0423L72.8392 1.53043L73.2523 0.347824Z" fill="white"/>
<path d="M92.7357 12.6609L91.5654 16.9043H88.3984L84.13 2.36522C84.0611 2.15652 83.9923 2.01739 83.9234 1.94782C83.8546 1.87826 83.7858 1.80869 83.6481 1.73913C83.3727 1.6 83.235 1.53043 83.1661 1.46087C83.0973 1.3913 83.0284 1.25217 83.0284 1.04348C83.0284 0.834781 83.1661 0.626085 83.3727 0.486955C83.5104 0.347824 83.7858 0.347824 84.1988 0.347824H89.5688C89.9131 0.347824 90.1196 0.347824 90.2573 0.347824C90.395 0.347824 90.4638 0.41739 90.5327 0.41739C90.6015 0.486955 90.6704 0.55652 90.7392 0.626085C90.8081 0.695651 90.8081 0.834781 90.8081 0.904346C90.8081 1.18261 90.6704 1.3913 90.395 1.53043C90.1884 1.66956 90.0507 1.73913 89.9819 1.87826C89.9131 2.01739 89.8442 2.15652 89.8442 2.36522C89.8442 2.50435 89.8442 2.57391 89.9131 2.71304L92.7357 12.6609ZM93.1488 10.9217L92.5292 8.62609L93.9061 3.47826C93.975 3.13043 94.0438 2.92174 94.0438 2.85217C94.0438 2.64348 94.0438 2.50435 93.9061 2.22609C93.7684 1.94782 93.5619 1.73913 93.2865 1.66956L92.9423 1.6C92.5981 1.46087 92.4604 1.32174 92.4604 0.973911C92.4604 0.765216 92.5292 0.55652 92.7357 0.486955C92.9423 0.41739 93.1488 0.278259 93.4931 0.278259H96.4534C96.7977 0.278259 97.0731 0.347825 97.2107 0.41739C97.4173 0.55652 97.4861 0.695651 97.4861 0.973911C97.4861 1.11304 97.4861 1.25217 97.4173 1.32174C97.3484 1.3913 97.2796 1.46087 97.0731 1.53043L96.3846 1.87826C96.1092 2.01739 95.9027 2.22609 95.6273 2.57391C95.3519 2.92174 95.2142 3.33913 95.0765 3.82609L93.1488 10.9217Z" fill="white"/>
<path d="M105.197 16.9043H99.8269H99.4827C99.2073 16.9043 99.0008 16.8348 98.7942 16.7652C98.6566 16.6261 98.5877 16.487 98.5877 16.2783C98.5877 15.9304 98.7254 15.7217 99.0696 15.6522C99.345 15.5826 99.4827 15.513 99.5516 15.513C99.6204 15.513 99.6204 15.4435 99.6892 15.3739C99.7581 15.2348 99.8269 15.0261 99.8269 14.7478V2.50435C99.8269 2.22609 99.7581 2.01739 99.6892 1.87826C99.6204 1.80869 99.6204 1.73913 99.5516 1.73913C99.4827 1.73913 99.345 1.66956 99.0696 1.6C98.7254 1.46087 98.5877 1.25217 98.5877 0.973911C98.5877 0.765215 98.6566 0.626085 98.7942 0.486955C98.9319 0.347824 99.2073 0.347824 99.4827 0.347824H99.8269H105.197H105.541C105.817 0.347824 106.023 0.417389 106.23 0.486955C106.436 0.55652 106.436 0.765215 106.436 0.973911C106.436 1.32174 106.298 1.53043 105.954 1.6C105.679 1.66956 105.541 1.73913 105.472 1.73913C105.403 1.73913 105.403 1.80869 105.335 1.87826C105.266 2.01739 105.197 2.22609 105.197 2.50435V14.6783C105.197 14.9565 105.266 15.1652 105.335 15.3043C105.403 15.3739 105.403 15.4435 105.472 15.4435C105.541 15.4435 105.679 15.513 105.954 15.5826C106.298 15.7217 106.436 15.9304 106.436 16.2087C106.436 16.4174 106.367 16.5565 106.23 16.6957C106.092 16.8348 105.817 16.8348 105.541 16.8348H105.197V16.9043Z" fill="white"/>
<path d="M112.426 3.40869L113.045 5.91304L110.911 13.7739C110.842 13.9826 110.842 14.1913 110.842 14.4C110.842 14.887 111.049 15.3043 111.531 15.513L111.944 15.7217C112.219 15.8609 112.357 16.0696 112.357 16.3478C112.357 16.7652 112.082 16.9739 111.462 16.9739H108.364C108.088 16.9739 107.813 16.9043 107.675 16.7652C107.469 16.6261 107.4 16.487 107.4 16.2783C107.4 16.0696 107.607 15.8609 107.951 15.7217C108.295 15.5826 108.502 15.4435 108.708 15.3043C108.846 15.1652 108.983 15.0261 109.19 14.8174C109.397 14.4696 109.603 14.0522 109.741 13.4957L112.426 3.40869ZM113.252 0.347824H118.14L121.513 14.6087C121.582 14.887 121.651 15.0957 121.72 15.3043C121.789 15.4435 121.927 15.5826 122.202 15.6522C122.408 15.7217 122.546 15.8609 122.615 15.9304C122.684 16 122.753 16.1391 122.753 16.2783C122.753 16.6957 122.408 16.9043 121.789 16.9043H115.799C115.524 16.9043 115.386 16.8348 115.248 16.6957C115.111 16.5565 115.042 16.4174 115.042 16.2087C115.042 16.0696 115.042 15.9304 115.111 15.8609C115.18 15.7913 115.317 15.6522 115.524 15.5826C115.662 15.513 115.799 15.4435 115.868 15.3043C115.937 15.2348 115.937 15.0957 115.937 14.9565C115.937 14.8174 115.937 14.6783 115.868 14.6087L115.455 12.8696H112.082L112.426 11.4087H115.111L112.908 1.53043L113.252 0.347824Z" fill="white"/>
<path d="M123.235 0.347824H126.402V1.80869C126.057 2.01739 125.713 2.29565 125.507 2.64348C125.162 3.2 124.956 3.82609 124.818 4.5913L124.68 5.35652C124.612 5.56522 124.543 5.77391 124.405 5.91304C124.267 6.05217 124.13 6.12174 123.923 6.12174C123.717 6.12174 123.51 6.05217 123.441 5.91304C123.303 5.70435 123.235 5.56522 123.235 5.28695V0.347824ZM132.735 0.347824V14.6087C132.735 14.9565 132.804 15.1652 132.942 15.3043C133.011 15.3739 133.08 15.4435 133.148 15.4435C133.217 15.4435 133.424 15.513 133.699 15.5826C134.112 15.6522 134.25 15.8609 134.25 16.2783C134.25 16.487 134.112 16.6261 133.906 16.7652C133.768 16.8348 133.493 16.9043 133.148 16.9043H132.735H127.365H126.952C126.608 16.9043 126.333 16.8348 126.126 16.7652C125.92 16.6261 125.851 16.487 125.851 16.2783C125.851 15.9304 126.057 15.7217 126.402 15.5826C126.746 15.513 126.883 15.4435 126.952 15.4435C127.021 15.4435 127.09 15.3739 127.09 15.3043C127.228 15.1652 127.297 14.9565 127.297 14.6087V0.347824H132.735ZM136.935 0.347824V5.28695C136.935 5.49565 136.866 5.70435 136.728 5.84348C136.591 5.98261 136.453 6.05217 136.247 6.05217C136.04 6.05217 135.902 5.98261 135.765 5.84348C135.627 5.70435 135.558 5.49565 135.489 5.28695L135.352 4.52174C135.214 3.75652 135.007 3.13043 134.663 2.57391C134.457 2.22609 134.181 1.94782 133.768 1.73913V0.347824H136.935Z" fill="white"/>
<path d="M144.99 16.9043H139.62H139.276C139 16.9043 138.794 16.8348 138.587 16.7652C138.45 16.6261 138.381 16.487 138.381 16.2783C138.381 15.9304 138.518 15.7217 138.863 15.6522C139.138 15.5826 139.276 15.513 139.345 15.513C139.413 15.513 139.413 15.4435 139.482 15.3739C139.551 15.2348 139.62 15.0261 139.62 14.7478V2.50435C139.62 2.22609 139.551 2.01739 139.482 1.87826C139.413 1.80869 139.413 1.73913 139.345 1.73913C139.276 1.73913 139.138 1.66956 138.863 1.6C138.518 1.46087 138.381 1.25217 138.381 0.973911C138.381 0.765215 138.45 0.626085 138.587 0.486955C138.725 0.347824 139 0.347824 139.276 0.347824H139.62H144.99H145.334C145.61 0.347824 145.816 0.417389 146.023 0.486955C146.229 0.55652 146.229 0.765215 146.229 0.973911C146.229 1.32174 146.092 1.53043 145.747 1.6C145.472 1.66956 145.334 1.73913 145.265 1.73913C145.197 1.73913 145.197 1.80869 145.128 1.87826C145.059 2.01739 144.99 2.22609 144.99 2.50435V14.6783C144.99 14.9565 145.059 15.1652 145.128 15.3043C145.197 15.3739 145.197 15.4435 145.265 15.4435C145.334 15.4435 145.472 15.513 145.747 15.5826C146.092 15.7217 146.229 15.9304 146.229 16.2087C146.229 16.4174 146.16 16.5565 146.023 16.6957C145.885 16.8348 145.61 16.8348 145.334 16.8348H144.99V16.9043Z" fill="white"/>
<path d="M154.56 1.32174C154.147 1.46087 153.871 1.66957 153.665 1.94783C153.458 2.22609 153.389 2.57391 153.389 3.06087V13.913C153.389 14.6087 153.458 15.0957 153.665 15.4435C153.802 15.6522 154.078 15.8609 154.491 16V17.3217C152.701 17.1826 151.186 16.487 150.016 15.3043C148.432 13.7043 147.675 11.5478 147.675 8.76522C147.675 7.37391 147.882 6.05217 148.295 4.93913C148.708 3.82609 149.327 2.85217 150.153 2.01739C150.773 1.3913 151.462 0.973913 152.15 0.626087C152.838 0.278261 153.665 0.13913 154.56 0.0695652V1.32174ZM155.523 1.32174V0C156.418 0.0695652 157.176 0.208696 157.933 0.556522C158.69 0.904348 159.31 1.32174 159.93 1.94783C161.582 3.54783 162.408 5.77391 162.408 8.69565C162.408 11.4783 161.651 13.7043 160.067 15.2348C158.828 16.4174 157.382 17.113 155.592 17.2522V15.9304C155.799 15.8609 155.937 15.7913 156.074 15.7217C156.212 15.6522 156.281 15.513 156.418 15.3739C156.625 15.0261 156.763 14.5391 156.763 13.8435V2.9913C156.763 2.57391 156.694 2.22609 156.556 1.94783C156.487 1.8087 156.35 1.66957 156.212 1.53043C156.005 1.46087 155.799 1.3913 155.523 1.32174Z" fill="white"/>
<path d="M165.644 4.5913L166.952 6.74782V13.2174C166.952 13.7739 167.021 14.2609 167.227 14.6087C167.434 14.9565 167.709 15.3043 168.122 15.513L168.467 15.7217C168.673 15.8609 168.811 16 168.811 16.2783C168.811 16.487 168.742 16.6261 168.604 16.7652C168.467 16.9043 168.191 16.9043 167.778 16.9043H164.955C164.198 16.9043 163.854 16.6957 163.854 16.2783C163.854 16.1391 163.923 16 163.992 15.9304C164.06 15.8609 164.267 15.7217 164.473 15.5826C165.231 15.1652 165.644 14.4 165.644 13.2174V4.5913ZM170.738 0.347824L177.141 11.5478V16.9043H173.837L165.644 2.71304C165.437 2.43478 165.3 2.15652 165.231 2.08695C165.162 2.01739 164.955 1.87826 164.818 1.80869L164.336 1.66956C164.198 1.6 164.129 1.53043 164.06 1.46087C163.992 1.3913 163.923 1.25217 163.923 1.11304C163.923 0.973911 163.992 0.834781 164.06 0.69565C164.129 0.55652 164.198 0.486955 164.336 0.417389C164.473 0.347824 164.818 0.347824 165.437 0.347824H170.738ZM177.141 9.6L175.833 7.44348V4.03478C175.833 3.33913 175.764 2.85217 175.558 2.50435C175.351 2.15652 175.007 1.80869 174.525 1.6C174.387 1.53043 174.25 1.46087 174.181 1.32174C174.112 1.25217 174.112 1.11304 174.112 0.973911C174.112 0.765215 174.181 0.626085 174.318 0.486955C174.456 0.417389 174.663 0.347824 175.007 0.347824H178.036C178.449 0.347824 178.725 0.417389 178.862 0.55652C179 0.69565 179.069 0.834781 179.069 1.04348C179.069 1.18261 179 1.32174 178.931 1.46087C178.862 1.6 178.656 1.66956 178.38 1.80869C177.967 2.01739 177.623 2.36522 177.417 2.78261C177.279 3.13043 177.21 3.54782 177.21 4.10435V9.6H177.141Z" fill="white"/>
<path d="M77.7273 23.3739V24.1391C77.5208 24.2087 77.3143 24.2783 77.1766 24.487C77.0389 24.6957 76.97 24.9044 76.97 25.2522V30.2609V30.5391C76.97 30.6087 76.97 30.7478 77.0389 30.8174C77.1077 30.887 77.1077 31.0261 77.1766 31.0957C77.2454 31.1652 77.3143 31.2348 77.3831 31.2348C77.452 31.2348 77.5208 31.3044 77.6585 31.3044V32C76.9012 32 76.2127 31.7913 75.5931 31.3739C75.1112 31.0261 74.6981 30.5391 74.4227 29.913C74.1473 29.287 74.0096 28.5913 74.0096 27.7565C74.0096 27.1304 74.0785 26.5739 74.285 26.0174C74.4916 25.4609 74.6981 25.0435 75.0423 24.6261C75.3866 24.2087 75.7308 23.9304 76.2127 23.6522C76.6946 23.3739 77.1077 23.3044 77.5208 23.3044L77.7273 23.3739ZM78.2093 24.1391V23.3739C78.4158 23.3739 78.5535 23.4435 78.6912 23.4435C78.8289 23.513 79.0354 23.5826 79.3796 23.6522C79.5862 23.7217 79.7239 23.7913 79.7927 23.7913C79.9304 23.7913 79.9993 23.7217 80.0681 23.6522L80.137 23.513C80.2058 23.4435 80.2746 23.3739 80.4123 23.3739C80.55 23.3739 80.6189 23.3739 80.6877 23.4435C80.7566 23.513 80.7566 23.5826 80.7566 23.7217V26.2261C80.7566 26.3652 80.6877 26.5044 80.6189 26.5739C80.55 26.6435 80.4812 26.713 80.3435 26.713C80.2746 26.713 80.137 26.713 80.137 26.6435C80.0681 26.5739 79.9993 26.5044 79.9993 26.3652C79.9304 26.0174 79.8616 25.8087 79.7239 25.6C79.5173 25.1826 79.3796 24.9044 79.1043 24.6957C78.9666 24.5565 78.8289 24.4174 78.6912 24.3478C78.5535 24.2087 78.347 24.1391 78.2093 24.1391ZM78.2093 32V31.2348C78.5535 31.2348 78.8289 31.0957 79.1731 30.887C79.3796 30.7478 79.5173 30.6087 79.655 30.4C79.7927 30.1913 79.9304 29.9826 79.9993 29.7739C80.0681 29.6348 80.0681 29.5652 80.137 29.4957C80.2058 29.4261 80.2746 29.4261 80.3435 29.4261C80.4123 29.4261 80.55 29.4957 80.6189 29.5652C80.6877 29.6348 80.6877 29.7044 80.6877 29.8435C80.6877 30.0522 80.6189 30.2609 80.4812 30.5391C80.3435 30.8174 80.137 31.0261 79.9304 31.2348C79.655 31.513 79.3796 31.7217 79.1043 31.8609C78.8977 31.9304 78.5535 32 78.2093 32Z" fill="white"/>
<path d="M84.8873 31.8609H82.2023H82.0646C81.9269 31.8609 81.7892 31.8609 81.7204 31.7913C81.6515 31.7217 81.5827 31.6522 81.5827 31.5826C81.5827 31.4435 81.6515 31.3044 81.8581 31.2348C81.9958 31.1652 82.0646 31.1652 82.0646 31.1652C82.0646 31.1652 82.1335 31.1652 82.1335 31.0957C82.2023 31.0261 82.2023 30.9565 82.2023 30.8174V24.7652C82.2023 24.6261 82.2023 24.487 82.1335 24.487C82.1335 24.4174 82.0646 24.4174 82.0646 24.4174C82.0646 24.4174 81.9958 24.3478 81.8581 24.3478C81.7204 24.2783 81.5827 24.2087 81.5827 24C81.5827 23.9304 81.6515 23.7913 81.7204 23.7913C81.7892 23.7217 81.9269 23.7217 82.0646 23.7217H82.2023H84.8873H85.0939C85.3004 23.7217 85.3692 23.7217 85.5069 23.7913C85.6446 23.8609 85.6446 23.9304 85.6446 24.0696C85.6446 24.2783 85.5758 24.3478 85.3692 24.4174C85.2315 24.487 85.0939 24.487 85.0939 24.487L85.025 24.5565C84.9562 24.6261 84.9562 24.7652 84.9562 24.9044V31.8609H84.8873ZM85.4381 31.8609V31.1652C85.6446 31.0957 85.7823 31.0957 85.92 31.0261C86.0577 30.9565 86.1266 30.887 86.2642 30.8174C86.4019 30.6783 86.6085 30.4696 86.7462 30.2609C86.8839 30.0522 87.0215 29.7739 87.0904 29.4957C87.1592 29.287 87.2281 29.1478 87.2969 29.0783C87.3658 29.0087 87.4346 28.9391 87.5035 28.9391C87.6412 28.9391 87.71 29.0087 87.7789 29.0783C87.7789 29.1478 87.8477 29.2174 87.8477 29.3565V31.8609H85.4381Z" fill="white"/>
<path d="M88.7427 29.4261V24.6957C88.7427 24.5565 88.7427 24.4174 88.6738 24.4174C88.6738 24.3478 88.605 24.3478 88.605 24.3478C88.605 24.3478 88.5361 24.2783 88.3984 24.2783C88.2607 24.2087 88.123 24.1391 88.123 23.9304C88.123 23.7913 88.1919 23.7217 88.2607 23.7217C88.3296 23.6522 88.4673 23.6522 88.605 23.6522H88.7427H91.4277H91.5654H91.7719C91.8407 23.6522 91.9096 23.7217 91.9096 23.7913C91.9784 23.8609 91.9784 23.9304 91.9784 24C91.9784 24.1391 91.9096 24.2783 91.703 24.3478C91.5654 24.4174 91.4965 24.4174 91.4965 24.4174C91.4965 24.4174 91.4277 24.4174 91.4277 24.487C91.3588 24.5565 91.3588 24.6261 91.3588 24.7652V29.8435C91.3588 30.1913 91.3588 30.4 91.3588 30.5391C91.3588 30.6783 91.4277 30.8174 91.4965 30.887C91.5654 30.9565 91.6342 31.0957 91.703 31.0957C91.7719 31.1652 91.9096 31.1652 92.0473 31.2348V32H91.9096C91.3588 32 90.9457 31.9304 90.6015 31.8609C90.1884 31.7217 89.8442 31.5826 89.5 31.3739C89.2246 31.1652 88.9492 30.887 88.8804 30.6783C88.8115 30.4 88.7427 29.9826 88.7427 29.4261ZM92.6669 32V31.2348C93.08 31.1652 93.4242 31.0261 93.6996 30.7478C93.975 30.4 94.1815 29.9826 94.1815 29.3565V25.3913C94.1815 24.8348 93.975 24.4174 93.5619 24.2087C93.4242 24.1391 93.3554 24.0696 93.2865 24.0696C93.2177 24 93.2177 23.9304 93.2177 23.8609C93.2177 23.7217 93.2865 23.6522 93.3554 23.6522C93.4242 23.5826 93.5619 23.5826 93.6996 23.5826H95.1454C95.283 23.5826 95.3519 23.5826 95.4207 23.5826C95.4896 23.5826 95.4896 23.5826 95.5584 23.6522C95.6961 23.7217 95.6961 23.7913 95.6961 23.9304C95.6961 24 95.6961 24.0696 95.6273 24.1391C95.6273 24.1391 95.4896 24.2087 95.3519 24.2783C95.1454 24.3478 95.0077 24.5565 94.9388 24.6957C94.87 24.8348 94.8011 25.113 94.8011 25.3913V29.3565C94.8011 30.0522 94.6634 30.6087 94.3881 31.0261C94.1815 31.3739 93.8373 31.5826 93.4242 31.7913C93.1488 31.8609 92.9423 31.9304 92.6669 32Z" fill="white"/>
<path d="M99.8958 23.513V31.7913H97.2108H97.0731C96.9354 31.7913 96.7977 31.7913 96.7289 31.7217C96.66 31.6522 96.5912 31.5826 96.5912 31.513C96.5912 31.3739 96.66 31.2348 96.8666 31.1652C97.0043 31.0957 97.0731 31.0957 97.0731 31.0957C97.0731 31.0957 97.142 31.0957 97.142 31.0261C97.2108 30.9565 97.2108 30.887 97.2108 30.7478V24.6957C97.2108 24.5565 97.2108 24.4174 97.142 24.4174C97.142 24.3478 97.0731 24.3478 97.0731 24.3478C97.0731 24.3478 97.0043 24.2783 96.8666 24.2783C96.7289 24.2087 96.5912 24.1391 96.5912 23.9304C96.5912 23.8609 96.66 23.7217 96.7289 23.7217C96.7977 23.6522 96.9354 23.6522 97.0731 23.6522H97.2108H99.8958V23.513ZM101.755 27.5478C102.099 27.6174 102.374 27.687 102.581 27.7565C102.787 27.8261 102.925 27.8957 103.132 28.0348C103.407 28.2435 103.613 28.4522 103.751 28.7304C103.889 29.0087 103.958 29.3565 103.958 29.7044C103.958 30.4 103.682 30.9565 103.2 31.3044C102.925 31.513 102.65 31.6522 102.305 31.7217C101.961 31.7913 101.548 31.8609 101.066 31.8609H100.378V31.2348C100.515 31.2348 100.653 31.1652 100.791 31.1652C100.86 31.1652 100.997 31.0957 101.066 31.0261C101.204 30.887 101.273 30.6087 101.273 30.3304V28.9391C101.273 28.7304 101.273 28.5913 101.204 28.4522C101.135 28.313 101.135 28.2435 100.997 28.1739C100.928 28.1044 100.86 28.0348 100.791 28.0348C100.722 28.0348 100.584 27.9652 100.447 27.9652V27.3391C100.584 27.3391 100.722 27.3391 100.791 27.2696C100.86 27.2696 100.928 27.2 100.997 27.1304C101.066 27.0609 101.135 26.9913 101.135 26.9217C101.204 26.8522 101.204 26.713 101.204 26.6435V26.2957V25.2522C101.204 25.113 101.204 25.0435 101.135 24.9044C101.066 24.7652 101.066 24.6957 100.997 24.6261C100.928 24.5565 100.86 24.487 100.722 24.4174C100.653 24.3478 100.515 24.3478 100.309 24.3478V23.6522H100.997C101.892 23.6522 102.581 23.8609 103.132 24.2087C103.338 24.4174 103.545 24.6261 103.613 24.8348C103.751 25.113 103.82 25.3217 103.82 25.6696C103.82 25.9478 103.751 26.2261 103.613 26.5044C103.476 26.7826 103.338 26.9913 103.132 27.1304C102.994 27.2696 102.787 27.3391 102.581 27.4783C102.374 27.6174 102.099 27.4783 101.755 27.5478Z" fill="white"/>
</g>
<defs>
<clipPath id="clip0">
<rect width="179" height="32" fill="white"/>
</clipPath>
</defs>
</svg>
