<svg width="189" height="142" viewBox="0 0 189 142" fill="none" xmlns="http://www.w3.org/2000/svg">
<g clip-path="url(#clip0)">
<path d="M157.391 24.8161L149.187 32.9614H39.8125L31.6094 24.8161H90.6172H98.3828H157.391Z" fill="white"/>
<path d="M139.289 42.7901H108.719L105.656 39.7492H83.3437L80.2812 42.7901H49.6562L43.3672 36.1109H146.016L139.289 42.7901Z" fill="white"/>
<path d="M68.3047 68.7465L63.1094 48.4375L58.2969 46.374H76.6172L68.25 54.7365L68.3047 68.7465Z" fill="white"/>
<path d="M123.156 68.7465L128.297 48.4375L133.164 46.374H114.789L123.211 54.7365L123.156 68.7465Z" fill="white"/>
<path d="M189 6.67917L175.492 10.4803L162.531 19.7117H112.602L125.727 6.67917H189Z" fill="white"/>
<path d="M0 6.67917L13.5078 10.4803L26.4687 19.7117H76.3984L63.2734 6.67917H0Z" fill="white"/>
<path d="M102.812 46.374H86.1875L74.4297 57.5602V73.4164L86.1875 84.6027H102.812L114.57 73.4164V57.5602L102.812 46.374ZM94.5 74.9912C88.9766 74.9912 84.4922 70.7556 84.4922 65.4883C84.4922 60.221 88.9766 55.9855 94.5 55.9855C100.023 55.9855 104.508 60.221 104.508 65.4883C104.508 70.7556 100.023 74.9912 94.5 74.9912Z" fill="white"/>
<path d="M116.648 6.67917L103.523 19.7117H85.4766L72.3516 6.67917H90.6172L94.5 10.5346L98.3828 6.67917H116.648Z" fill="white"/>
<path d="M98.3828 88.6754L94.5 92.5308L90.6172 88.6754H98.3828Z" fill="white"/>
<path d="M28.4922 130.108H24.2266H23.9531C23.7344 130.108 23.5703 130.054 23.4062 129.999C23.2422 129.945 23.2422 129.782 23.2422 129.619C23.2422 129.348 23.3516 129.185 23.625 129.13C23.8438 129.076 23.9531 129.022 24.0078 129.022C24.0625 129.022 24.0625 128.967 24.1172 128.913C24.1719 128.805 24.2266 128.642 24.2266 128.424V118.867C24.2266 118.65 24.1719 118.487 24.1172 118.379C24.0625 118.324 24.0625 118.27 24.0078 118.27C23.9531 118.27 23.8438 118.216 23.625 118.161C23.3516 118.053 23.2422 117.89 23.2422 117.673C23.2422 117.51 23.2969 117.401 23.4062 117.293C23.5156 117.184 23.7344 117.184 23.9531 117.184H24.2266H28.4922H28.7656C29.2031 117.184 29.4219 117.347 29.4219 117.673C29.4219 117.944 29.3125 118.107 29.0391 118.161L28.7656 118.27C28.6016 118.324 28.4922 118.541 28.4922 118.922V128.479C28.4922 128.859 28.6016 129.022 28.7656 129.13L29.0391 129.239C29.2578 129.293 29.4219 129.511 29.4219 129.728C29.4219 130.054 29.2031 130.216 28.7656 130.216H28.4922V130.108ZM29.3125 122.994H30.8984V118.813C30.8984 118.433 30.7891 118.27 30.625 118.161L30.2969 118.053C30.0781 117.998 29.9141 117.781 29.9141 117.564C29.9141 117.238 30.1328 117.075 30.625 117.075H30.8984H35.1641H35.4375C35.9297 117.075 36.1484 117.238 36.1484 117.564C36.1484 117.836 36.0391 117.998 35.7656 118.053C35.5469 118.107 35.4375 118.161 35.3828 118.161C35.3281 118.161 35.3281 118.216 35.2734 118.27C35.2187 118.379 35.1641 118.541 35.1641 118.759V128.262C35.1641 128.587 35.2734 128.805 35.4375 128.913L35.7656 129.022C36.0391 129.13 36.1484 129.293 36.1484 129.565C36.1484 129.891 35.9297 130.054 35.4375 130.054H35.1641H30.8984H30.625C30.1875 130.054 29.9687 129.891 29.9687 129.565C29.9687 129.293 30.0781 129.13 30.3516 129.022L30.6797 128.913C30.8437 128.859 30.9531 128.642 30.9531 128.262V123.863H29.3672V122.994H29.3125Z" fill="white"/>
<path d="M43.1484 130.108H38.8281H38.5547C38.3359 130.108 38.1719 130.054 38.0078 129.999C37.8438 129.945 37.8438 129.782 37.8438 129.619C37.8438 129.348 37.9531 129.185 38.2266 129.13C38.4453 129.076 38.5547 129.022 38.6094 129.022C38.6641 129.022 38.6641 128.967 38.7188 128.913C38.7734 128.805 38.8281 128.642 38.8281 128.424V118.867C38.8281 118.65 38.7734 118.487 38.7188 118.379C38.6641 118.324 38.6641 118.27 38.6094 118.27C38.5547 118.27 38.4453 118.216 38.2266 118.161C37.9531 118.053 37.8438 117.89 37.8438 117.673C37.8438 117.51 37.8984 117.401 38.0078 117.293C38.1172 117.184 38.3359 117.184 38.5547 117.184H38.8281H43.0938H43.3672C43.5859 117.184 43.75 117.238 43.9141 117.293C44.0781 117.347 44.0781 117.51 44.0781 117.673C44.0781 117.944 43.9688 118.107 43.6953 118.161C43.4766 118.216 43.3672 118.27 43.3125 118.27C43.2578 118.27 43.2578 118.324 43.2031 118.379C43.1484 118.487 43.0938 118.65 43.0938 118.867V128.424C43.0938 128.642 43.1484 128.805 43.2031 128.913C43.2578 128.967 43.2578 129.022 43.3125 129.022C43.3672 129.022 43.4766 129.076 43.6953 129.13C43.9688 129.239 44.0781 129.402 44.0781 129.619C44.0781 129.782 44.0234 129.891 43.9141 129.999C43.8047 130.108 43.5859 130.108 43.3672 130.108H43.1484Z" fill="white"/>
<path d="M50.6953 116.858V117.944C50.1484 118.053 49.875 118.541 49.875 119.302V128.207C49.875 128.533 49.9297 128.805 50.0391 129.022C50.1484 129.185 50.3125 129.293 50.5859 129.402V130.488C50.3672 130.488 50.2031 130.488 50.0391 130.434C49.875 130.379 49.6563 130.325 49.3828 130.216C48.7266 129.999 48.125 129.619 47.5781 129.185C47.0313 128.75 46.5938 128.153 46.2109 127.501C45.6641 126.47 45.3906 125.275 45.3906 123.863C45.3906 122.506 45.6094 121.311 46.1016 120.279C46.5938 119.247 47.3047 118.379 48.1797 117.781C48.7266 117.455 49.2734 117.184 49.875 117.021C50.0391 116.858 50.3672 116.858 50.6953 116.858ZM55.8359 128.533C55.5625 128.805 55.2344 129.022 54.7969 129.293C54.3594 129.565 53.9766 129.782 53.5938 129.945C53.2656 130.054 52.8828 130.162 52.4453 130.271C52.0078 130.379 51.6797 130.379 51.3516 130.379V129.293C51.5156 129.239 51.6797 129.185 51.7891 129.13C51.8984 129.076 51.9531 128.967 52.0078 128.859C52.1172 128.642 52.1719 128.424 52.1719 128.099V125.329C52.1719 125.058 52.1172 124.895 52.0078 124.786C51.9531 124.732 51.8984 124.678 51.8984 124.678C51.8984 124.678 51.6797 124.623 51.4609 124.569C51.1328 124.515 51.0234 124.298 51.0234 124.026C51.0234 123.863 51.0781 123.754 51.2422 123.646C51.4063 123.537 51.625 123.537 51.8984 123.537H52.2266H55.7266C56 123.537 56.2188 123.592 56.3281 123.646C56.4375 123.7 56.4922 123.863 56.4922 124.08C56.4922 124.189 56.4922 124.298 56.4375 124.406C56.3828 124.515 56.3281 124.569 56.1641 124.678C56 124.786 55.9453 124.841 55.9453 124.949C55.9453 125.058 55.8906 125.166 55.8906 125.384V128.533H55.8359ZM51.4609 117.89V116.858C52.5 116.967 53.375 117.13 54.0313 117.455C54.25 117.564 54.3594 117.564 54.4688 117.564C54.5781 117.564 54.6328 117.564 54.6875 117.51C54.7422 117.455 54.8516 117.347 55.0156 117.13C55.125 116.967 55.2891 116.912 55.4531 116.912C55.6172 116.912 55.7813 116.967 55.8359 117.075C55.8906 117.184 55.9453 117.347 55.9453 117.564V121.257C55.9453 121.745 55.7813 121.963 55.3984 121.963C55.2344 121.963 55.0703 121.908 55.0156 121.8C54.9609 121.691 54.8516 121.528 54.7969 121.257C54.6875 120.876 54.5234 120.496 54.3047 120.008C54.0859 119.519 53.8125 119.139 53.5938 118.867C53.3203 118.541 53.0469 118.324 52.7188 118.161C52.3906 117.998 51.9531 117.89 51.4609 117.89Z" fill="white"/>
<path d="M63.3281 130.108H59.0625H58.7891C58.5703 130.108 58.4063 130.054 58.2422 129.999C58.0781 129.945 58.0781 129.782 58.0781 129.619C58.0781 129.348 58.1875 129.185 58.4609 129.13C58.6797 129.076 58.7891 129.022 58.8438 129.022C58.8984 129.022 58.8984 128.967 58.9531 128.913C59.0078 128.805 59.0625 128.642 59.0625 128.424V118.867C59.0625 118.65 59.0078 118.487 58.9531 118.379C58.8984 118.324 58.8984 118.27 58.8438 118.27C58.7891 118.27 58.6797 118.216 58.4609 118.161C58.1875 118.053 58.0781 117.89 58.0781 117.673C58.0781 117.51 58.1328 117.401 58.2422 117.293C58.3516 117.184 58.5703 117.184 58.7891 117.184H59.0625H63.3281H63.6016C64.0391 117.184 64.2578 117.347 64.2578 117.673C64.2578 117.944 64.1484 118.107 63.875 118.161L63.6016 118.27C63.4375 118.324 63.3281 118.541 63.3281 118.922V128.479C63.3281 128.859 63.4375 129.022 63.6016 129.13L63.875 129.239C64.0938 129.293 64.2578 129.511 64.2578 129.728C64.2578 130.054 64.0391 130.216 63.6016 130.216H63.3281V130.108ZM64.1484 122.994H65.7344V118.813C65.7344 118.433 65.625 118.27 65.4609 118.161L65.1328 118.053C64.9141 117.998 64.75 117.781 64.75 117.564C64.75 117.238 64.9687 117.075 65.4609 117.075H65.7344H70H70.2734C70.7656 117.075 70.9844 117.238 70.9844 117.564C70.9844 117.836 70.875 117.998 70.6016 118.053C70.3828 118.107 70.2734 118.161 70.2187 118.161C70.1641 118.161 70.1641 118.216 70.1094 118.27C70.0547 118.379 70 118.541 70 118.759V128.262C70 128.587 70.1094 128.805 70.2734 128.913L70.6016 129.022C70.875 129.13 70.9844 129.293 70.9844 129.565C70.9844 129.891 70.7656 130.054 70.2734 130.054H70H65.7344H65.4609C65.0234 130.054 64.8047 129.891 64.8047 129.565C64.8047 129.293 64.9141 129.13 65.1875 129.022L65.5156 128.913C65.6797 128.859 65.7891 128.642 65.7891 128.262V123.863H64.2031V122.994H64.1484Z" fill="white"/>
<path d="M80.8828 119.519L81.375 121.474L79.6797 127.664C79.625 127.827 79.625 127.99 79.625 128.153C79.625 128.533 79.7891 128.859 80.1719 129.022L80.5 129.185C80.7187 129.293 80.8281 129.456 80.8281 129.673C80.8281 129.999 80.6094 130.162 80.1172 130.162H77.6562C77.4375 130.162 77.2187 130.108 77.1094 129.999C77 129.891 76.8906 129.782 76.8906 129.619C76.8906 129.456 77.0547 129.293 77.3281 129.185C77.6016 129.076 77.7656 128.967 77.9297 128.859C78.0937 128.75 78.1484 128.642 78.3125 128.479C78.4766 128.207 78.6406 127.881 78.75 127.447L80.8828 119.519ZM81.5391 117.075H85.4219L88.1016 128.316C88.1562 128.533 88.2109 128.696 88.2656 128.859C88.3203 128.967 88.4297 129.076 88.6484 129.13C88.8125 129.185 88.9219 129.293 88.9765 129.348C89.0312 129.402 89.0859 129.511 89.0859 129.619C89.0859 129.945 88.8125 130.108 88.3203 130.108H83.5078C83.2891 130.108 83.1797 130.054 83.0703 129.945C82.9609 129.836 82.9062 129.728 82.9062 129.565C82.9062 129.456 82.9062 129.348 82.9609 129.293C83.0156 129.239 83.125 129.13 83.2891 129.076C83.3984 129.022 83.5078 128.967 83.5625 128.859C83.6172 128.75 83.6172 128.696 83.6172 128.587C83.6172 128.479 83.6172 128.37 83.5625 128.316L83.2344 126.958H80.5547L80.8281 125.818H82.9609L81.2109 118.053L81.5391 117.075Z" fill="white"/>
<path d="M97.0703 126.795L96.1406 130.162H93.625L90.1797 118.759C90.125 118.596 90.0703 118.487 90.0156 118.433C89.9609 118.379 89.9062 118.324 89.7969 118.27C89.5781 118.161 89.4687 118.107 89.4141 118.053C89.3594 117.998 89.3047 117.89 89.3047 117.727C89.3047 117.51 89.4141 117.401 89.5781 117.293C89.6875 117.184 89.9609 117.184 90.2344 117.184H94.5C94.7734 117.184 94.9375 117.184 95.0469 117.184C95.1562 117.184 95.2109 117.238 95.2656 117.238C95.3203 117.293 95.375 117.347 95.4297 117.455C95.4844 117.564 95.4844 117.618 95.4844 117.673C95.4844 117.89 95.375 118.053 95.1562 118.161C94.9922 118.27 94.8828 118.324 94.8281 118.433C94.7734 118.541 94.7187 118.65 94.7187 118.813C94.7187 118.922 94.7188 119.03 94.7734 119.085L97.0703 126.795ZM97.3984 125.438L96.9062 123.646L98 119.628C98.0547 119.356 98.1094 119.193 98.1094 119.139C98.1094 118.976 98.1094 118.867 98 118.65C97.8906 118.433 97.7266 118.27 97.5078 118.216L97.1797 118.107C96.9062 117.998 96.7969 117.836 96.7969 117.618C96.7969 117.455 96.8516 117.293 97.0156 117.238C97.1797 117.184 97.3437 117.075 97.6172 117.075H99.9688C100.242 117.075 100.461 117.13 100.57 117.184C100.734 117.293 100.789 117.401 100.789 117.618C100.789 117.727 100.789 117.836 100.734 117.89C100.68 117.944 100.625 117.998 100.461 118.107L99.9688 118.324C99.75 118.433 99.5859 118.596 99.3672 118.867C99.1484 119.139 99.0391 119.465 98.9297 119.845L97.3984 125.438Z" fill="white"/>
<path d="M107.023 130.108H102.758H102.484C102.266 130.108 102.102 130.054 101.937 129.999C101.773 129.945 101.773 129.782 101.773 129.619C101.773 129.348 101.883 129.185 102.156 129.13C102.375 129.076 102.484 129.022 102.539 129.022C102.594 129.022 102.594 128.967 102.648 128.913C102.703 128.805 102.758 128.642 102.758 128.424V118.867C102.758 118.65 102.703 118.487 102.648 118.379C102.594 118.324 102.594 118.27 102.539 118.27C102.484 118.27 102.375 118.216 102.156 118.161C101.883 118.053 101.773 117.89 101.773 117.673C101.773 117.51 101.828 117.401 101.937 117.293C102.047 117.184 102.266 117.184 102.484 117.184H102.758H107.023H107.297C107.516 117.184 107.68 117.238 107.844 117.293C108.008 117.347 108.008 117.51 108.008 117.673C108.008 117.944 107.898 118.107 107.625 118.161C107.406 118.216 107.297 118.27 107.242 118.27C107.188 118.27 107.187 118.324 107.133 118.379C107.078 118.487 107.023 118.65 107.023 118.867V128.424C107.023 128.642 107.078 128.805 107.133 128.913C107.187 128.967 107.188 129.022 107.242 129.022C107.297 129.022 107.406 129.076 107.625 129.13C107.898 129.239 108.008 129.402 108.008 129.619C108.008 129.782 107.953 129.891 107.844 129.999C107.734 130.108 107.516 130.108 107.297 130.108H107.023Z" fill="white"/>
<path d="M112.766 119.519L113.258 121.474L111.563 127.664C111.508 127.827 111.508 127.99 111.508 128.153C111.508 128.533 111.672 128.859 112.055 129.022L112.383 129.185C112.602 129.293 112.711 129.456 112.711 129.673C112.711 129.999 112.492 130.162 112 130.162H109.539C109.32 130.162 109.102 130.108 108.992 129.999C108.883 129.891 108.773 129.782 108.773 129.619C108.773 129.456 108.938 129.293 109.211 129.185C109.484 129.076 109.648 128.967 109.813 128.859C109.977 128.75 110.031 128.642 110.195 128.479C110.359 128.207 110.523 127.881 110.633 127.447L112.766 119.519ZM113.422 117.075H117.305L119.984 128.316C120.039 128.533 120.094 128.696 120.148 128.859C120.203 128.967 120.312 129.076 120.531 129.13C120.695 129.185 120.805 129.293 120.859 129.348C120.914 129.402 120.969 129.511 120.969 129.619C120.969 129.945 120.695 130.108 120.203 130.108H115.391C115.172 130.108 115.063 130.054 114.953 129.945C114.844 129.836 114.789 129.728 114.789 129.565C114.789 129.456 114.789 129.348 114.844 129.293C114.898 129.239 115.008 129.13 115.172 129.076C115.281 129.022 115.391 128.967 115.445 128.859C115.5 128.75 115.5 128.696 115.5 128.587C115.5 128.479 115.5 128.37 115.445 128.316L115.117 126.958H112.438L112.711 125.818H114.844L113.094 118.053L113.422 117.075Z" fill="white"/>
<path d="M121.352 117.075H123.867V118.216C123.539 118.379 123.32 118.596 123.156 118.867C122.883 119.302 122.719 119.79 122.609 120.388L122.5 120.985C122.445 121.148 122.391 121.311 122.281 121.42C122.172 121.528 122.063 121.582 121.898 121.582C121.734 121.582 121.57 121.528 121.516 121.42C121.461 121.311 121.352 121.148 121.352 120.985V117.075ZM128.898 117.075V128.316C128.898 128.587 128.953 128.75 129.063 128.859C129.117 128.913 129.172 128.968 129.227 128.968C129.281 128.968 129.445 129.022 129.664 129.076C129.992 129.13 130.102 129.348 130.102 129.619C130.102 129.782 129.992 129.945 129.828 129.999C129.719 130.054 129.5 130.108 129.227 130.108H128.898H124.633H124.305C124.031 130.108 123.813 130.054 123.648 129.999C123.484 129.945 123.43 129.782 123.43 129.619C123.43 129.348 123.594 129.185 123.867 129.076C124.141 129.022 124.25 128.968 124.305 128.968C124.359 128.968 124.414 128.913 124.414 128.859C124.523 128.75 124.578 128.587 124.578 128.316V117.075H128.898ZM132.234 117.075V120.985C132.234 121.148 132.18 121.311 132.07 121.42C131.961 121.528 131.852 121.582 131.688 121.582C131.523 121.582 131.414 121.528 131.305 121.42C131.195 121.311 131.141 121.148 131.086 120.985L130.977 120.388C130.867 119.79 130.703 119.302 130.43 118.867C130.266 118.596 130.047 118.379 129.719 118.216V117.075H132.234Z" fill="white"/>
<path d="M138.687 130.108H134.422H134.148C133.93 130.108 133.766 130.054 133.602 129.999C133.438 129.945 133.438 129.782 133.438 129.619C133.438 129.348 133.547 129.185 133.82 129.13C134.039 129.076 134.148 129.022 134.203 129.022C134.258 129.022 134.258 128.967 134.313 128.913C134.367 128.805 134.422 128.642 134.422 128.424V118.867C134.422 118.65 134.367 118.487 134.313 118.379C134.258 118.324 134.258 118.27 134.203 118.27C134.148 118.27 134.039 118.216 133.82 118.161C133.547 118.053 133.438 117.89 133.438 117.673C133.438 117.51 133.492 117.401 133.602 117.293C133.711 117.184 133.93 117.184 134.148 117.184H134.422H138.687H138.961C139.18 117.184 139.344 117.238 139.508 117.293C139.672 117.347 139.672 117.51 139.672 117.673C139.672 117.944 139.562 118.107 139.289 118.161C139.07 118.216 138.961 118.27 138.906 118.27C138.852 118.27 138.852 118.324 138.797 118.379C138.742 118.487 138.687 118.65 138.687 118.867V128.424C138.687 128.642 138.742 128.805 138.797 128.913C138.852 128.967 138.852 129.022 138.906 129.022C138.961 129.022 139.07 129.076 139.289 129.13C139.562 129.239 139.672 129.402 139.672 129.619C139.672 129.782 139.617 129.891 139.508 129.999C139.398 130.108 139.18 130.108 138.961 130.108H138.687Z" fill="white"/>
<path d="M146.289 117.89C145.961 117.998 145.742 118.161 145.578 118.379C145.414 118.596 145.359 118.867 145.359 119.247V127.773C145.359 128.316 145.414 128.75 145.578 128.967C145.688 129.185 145.906 129.293 146.234 129.402V130.434C144.812 130.325 143.609 129.782 142.68 128.859C141.422 127.61 140.82 125.927 140.82 123.7C140.82 122.614 140.984 121.582 141.312 120.714C141.641 119.845 142.133 119.085 142.789 118.433C143.281 117.944 143.828 117.618 144.375 117.347C144.922 117.075 145.578 116.967 146.289 116.912V117.89ZM147.109 117.89V116.858C147.82 116.912 148.422 117.021 149.023 117.293C149.625 117.564 150.117 117.89 150.609 118.379C151.922 119.628 152.578 121.419 152.578 123.646C152.578 125.872 151.977 127.556 150.719 128.805C149.734 129.782 148.586 130.271 147.109 130.379V129.348C147.273 129.293 147.383 129.239 147.492 129.185C147.602 129.13 147.656 129.022 147.766 128.913C147.93 128.642 148.039 128.262 148.039 127.719V119.193C148.039 118.867 147.984 118.596 147.875 118.379C147.82 118.27 147.711 118.161 147.602 118.053C147.492 117.944 147.273 117.944 147.109 117.89Z" fill="white"/>
<path d="M155.148 120.442L156.187 122.125V127.23C156.187 127.664 156.242 128.044 156.406 128.316C156.57 128.587 156.789 128.859 157.117 129.022L157.391 129.185C157.555 129.293 157.664 129.402 157.664 129.619C157.664 129.782 157.609 129.891 157.5 129.999C157.391 130.108 157.172 130.108 156.844 130.108H154.602C154 130.108 153.727 129.945 153.727 129.619C153.727 129.511 153.781 129.402 153.836 129.348C153.891 129.293 154.055 129.185 154.219 129.076C154.82 128.75 155.148 128.099 155.148 127.23V120.442ZM159.141 117.075L164.281 125.872V130.108H161.656L155.148 118.922C154.984 118.704 154.875 118.487 154.82 118.433C154.766 118.379 154.602 118.27 154.492 118.216L154.109 118.107C154 118.053 153.945 117.998 153.891 117.944C153.836 117.89 153.781 117.781 153.781 117.673C153.781 117.564 153.836 117.455 153.891 117.347C153.945 117.238 154 117.184 154.109 117.13C154.219 117.075 154.492 117.075 154.984 117.075H159.141ZM164.281 124.406L163.242 122.723V120.062C163.242 119.519 163.187 119.139 163.023 118.813C162.859 118.487 162.586 118.27 162.203 118.107C162.094 118.053 161.984 117.998 161.93 117.89C161.875 117.781 161.875 117.727 161.875 117.618C161.875 117.455 161.93 117.347 162.039 117.238C162.148 117.13 162.312 117.13 162.586 117.13H164.992C165.32 117.13 165.539 117.184 165.648 117.293C165.758 117.401 165.812 117.51 165.812 117.673C165.812 117.781 165.758 117.89 165.703 117.998C165.648 118.107 165.484 118.161 165.266 118.27C164.938 118.433 164.664 118.704 164.5 119.085C164.391 119.356 164.336 119.682 164.336 120.171V124.406H164.281Z" fill="white"/>
<path d="M85.0938 135.212V135.81C84.9297 135.864 84.7656 135.918 84.6563 136.081C84.5469 136.244 84.4922 136.407 84.4922 136.678V140.642V140.86C84.4922 140.914 84.4922 141.023 84.5469 141.077C84.6016 141.131 84.6016 141.24 84.6563 141.294C84.7109 141.348 84.7656 141.403 84.8203 141.457C84.875 141.511 84.9297 141.511 85.0391 141.511V142.109C84.4375 142.109 83.8906 141.946 83.3984 141.62C83.0156 141.348 82.6875 140.968 82.4688 140.48C82.25 139.991 82.1406 139.448 82.1406 138.796C82.1406 138.307 82.1953 137.873 82.3594 137.439C82.5234 137.004 82.6875 136.678 82.9609 136.353C83.2344 136.027 83.5078 135.81 83.8906 135.592C84.2734 135.375 84.6016 135.321 84.9297 135.321L85.0938 135.212ZM85.4766 135.81V135.212C85.6406 135.212 85.75 135.267 85.8594 135.267C85.9688 135.267 86.1328 135.375 86.4063 135.429C86.5703 135.484 86.6797 135.538 86.7344 135.538C86.8438 135.538 86.8984 135.484 86.9531 135.429L87.0078 135.321C87.0625 135.267 87.1172 135.212 87.2266 135.212C87.3359 135.212 87.3906 135.212 87.4453 135.267C87.5 135.321 87.5 135.375 87.5 135.484V137.493C87.5 137.602 87.4453 137.71 87.3906 137.764C87.3359 137.819 87.2812 137.873 87.1719 137.873C87.1172 137.873 87.0078 137.873 87.0078 137.819C86.9531 137.764 86.8984 137.71 86.8984 137.602C86.8437 137.33 86.7891 137.167 86.6797 137.004C86.5156 136.678 86.4063 136.461 86.1875 136.244C86.0781 136.135 85.9687 136.027 85.8047 135.972C85.6406 135.918 85.6406 135.81 85.4766 135.81ZM85.4766 142V141.403C85.75 141.403 85.9687 141.294 86.2422 141.131C86.4062 141.023 86.5156 140.914 86.625 140.751C86.7344 140.588 86.8437 140.425 86.8984 140.262C86.9531 140.154 86.9531 140.099 87.0078 140.045C87.0625 139.991 87.1172 139.991 87.1719 139.991C87.2266 139.991 87.3359 140.045 87.3906 140.099C87.4453 140.154 87.4453 140.208 87.4453 140.317C87.4453 140.48 87.3906 140.642 87.2813 140.86C87.1719 141.077 87.0078 141.24 86.8438 141.403C86.625 141.62 86.4063 141.783 86.1875 141.891C85.9688 142 85.8047 142 85.4766 142Z" fill="white"/>
<path d="M90.836 141.837H88.7031H88.5938C88.4844 141.837 88.375 141.837 88.3203 141.783C88.2656 141.728 88.211 141.674 88.211 141.62C88.211 141.511 88.2656 141.403 88.4297 141.348C88.5391 141.294 88.5938 141.294 88.5938 141.294C88.5938 141.294 88.6485 141.294 88.6485 141.24C88.7031 141.185 88.7031 141.131 88.7031 141.023V136.244C88.7031 136.135 88.7031 136.027 88.6485 136.027C88.6485 135.972 88.5938 135.972 88.5938 135.972C88.5938 135.972 88.5391 135.918 88.4297 135.918C88.3203 135.864 88.211 135.81 88.211 135.647C88.211 135.592 88.2656 135.484 88.3203 135.484C88.375 135.429 88.4844 135.429 88.5938 135.429H88.7031H90.836H91C91.1641 135.429 91.2188 135.429 91.3281 135.484C91.4375 135.538 91.4375 135.592 91.4375 135.701C91.4375 135.864 91.3828 135.918 91.2188 135.972C91.1094 136.027 91 136.027 91 136.027L90.9453 136.081C90.8906 136.135 90.8906 136.244 90.8906 136.353V141.837H90.836ZM91.2188 141.837V141.294C91.3828 141.24 91.4922 141.24 91.6016 141.185C91.711 141.131 91.7656 141.077 91.875 141.023C91.9844 140.914 92.1484 140.751 92.2578 140.588C92.3672 140.425 92.4766 140.208 92.5313 139.991C92.5859 139.828 92.6406 139.719 92.6953 139.665C92.75 139.611 92.8047 139.556 92.8594 139.556C92.9688 139.556 93.0234 139.611 93.0781 139.665C93.0781 139.719 93.1328 139.774 93.1328 139.882V141.837H91.2188Z" fill="white"/>
<path d="M93.8438 139.937V136.19C93.8438 136.081 93.8438 135.972 93.7891 135.972C93.7891 135.918 93.7344 135.918 93.7344 135.918C93.7344 135.918 93.6797 135.864 93.5703 135.864C93.4609 135.81 93.3516 135.755 93.3516 135.592C93.3516 135.484 93.4062 135.429 93.4609 135.429C93.5156 135.375 93.625 135.375 93.7344 135.375H93.8438H95.9766H96.0859H96.25C96.3047 135.375 96.3594 135.429 96.3594 135.484C96.3594 135.538 96.4141 135.592 96.4141 135.647C96.4141 135.755 96.3594 135.864 96.1953 135.918C96.0859 135.972 96.0313 135.972 96.0313 135.972C96.0313 135.972 95.9766 135.972 95.9766 136.027C95.9219 136.081 95.9219 136.135 95.9219 136.244V140.262C95.9219 140.534 95.9219 140.697 95.9219 140.805C95.9219 140.914 95.9766 141.023 96.0313 141.077C96.0859 141.131 96.1406 141.24 96.1953 141.24C96.25 141.24 96.3594 141.294 96.4687 141.348V142H96.3594C95.9219 142 95.5938 141.946 95.3203 141.891C94.9922 141.783 94.7187 141.674 94.4453 141.511C94.1719 141.348 94.0078 141.131 93.9531 140.968C93.8984 140.697 93.8438 140.371 93.8438 139.937ZM96.9609 142V141.348C97.2891 141.294 97.5625 141.185 97.7813 140.968C98 140.697 98.1641 140.371 98.1641 139.882V136.787C98.1641 136.353 98 136.027 97.6719 135.864C97.5625 135.81 97.5078 135.755 97.4531 135.755C97.3984 135.701 97.3984 135.647 97.3984 135.592C97.3984 135.484 97.4531 135.429 97.5078 135.429C97.5625 135.429 97.6719 135.375 97.7813 135.375H98.9844C99.0937 135.375 99.1484 135.375 99.2031 135.375C99.2578 135.375 99.2578 135.375 99.3125 135.429C99.4219 135.484 99.4219 135.538 99.4219 135.647C99.4219 135.701 99.4219 135.755 99.3672 135.81C99.3672 135.81 99.2578 135.864 99.1484 135.918C98.9844 135.972 98.875 136.135 98.8203 136.244C98.7656 136.353 98.7109 136.57 98.7109 136.787V139.882C98.7109 140.425 98.6016 140.86 98.3281 141.185C98.1641 141.457 97.8906 141.62 97.5625 141.783C97.3984 141.891 97.2344 141.946 96.9609 142Z" fill="white"/>
<path d="M102.758 135.321V141.837H100.625H100.516C100.406 141.837 100.297 141.837 100.242 141.783C100.187 141.728 100.133 141.674 100.133 141.62C100.133 141.511 100.187 141.403 100.352 141.348C100.461 141.294 100.516 141.294 100.516 141.294C100.516 141.294 100.57 141.294 100.57 141.24C100.625 141.185 100.625 141.131 100.625 141.023V136.244C100.625 136.135 100.625 136.027 100.57 136.027C100.57 135.972 100.516 135.972 100.516 135.972C100.516 135.972 100.461 135.918 100.352 135.918C100.242 135.864 100.133 135.81 100.133 135.647C100.133 135.592 100.187 135.484 100.242 135.484C100.297 135.429 100.406 135.429 100.516 135.429H100.625H102.758V135.321ZM104.234 138.47C104.508 138.525 104.727 138.579 104.891 138.633C105.055 138.688 105.164 138.742 105.328 138.85C105.547 139.013 105.711 139.176 105.82 139.394C105.93 139.611 105.984 139.882 105.984 140.154C105.984 140.697 105.766 141.131 105.383 141.403C105.164 141.566 104.945 141.674 104.672 141.728C104.398 141.783 104.07 141.837 103.688 141.837H103.141V141.348C103.25 141.348 103.359 141.294 103.469 141.294C103.578 141.294 103.633 141.24 103.688 141.131C103.797 141.023 103.852 140.805 103.852 140.588V139.502C103.852 139.339 103.852 139.231 103.797 139.122C103.742 139.013 103.742 138.959 103.633 138.905C103.578 138.85 103.523 138.796 103.469 138.796C103.414 138.796 103.305 138.742 103.195 138.742V138.253C103.305 138.253 103.414 138.253 103.469 138.199C103.523 138.199 103.578 138.145 103.633 138.09C103.687 138.036 103.742 137.982 103.742 137.927C103.742 137.873 103.797 137.764 103.797 137.71V137.439V136.624C103.797 136.515 103.797 136.461 103.742 136.353C103.687 136.244 103.687 136.19 103.633 136.135C103.578 136.081 103.523 136.027 103.414 135.972C103.305 135.918 103.25 135.918 103.086 135.918V135.375H103.633C104.344 135.375 104.945 135.538 105.328 135.81C105.492 135.972 105.656 136.135 105.711 136.298C105.766 136.461 105.875 136.678 105.875 136.95C105.875 137.167 105.82 137.384 105.711 137.602C105.602 137.819 105.492 137.982 105.328 138.09C105.219 138.199 105.055 138.253 104.891 138.362C104.727 138.47 104.563 138.416 104.234 138.47Z" fill="white"/>
</g>
<defs>
<clipPath id="clip0">
<rect width="189" height="142" fill="white"/>
</clipPath>
</defs>
</svg>
