<svg width="189" height="142" viewBox="0 0 189 142" fill="none" xmlns="http://www.w3.org/2000/svg">
<g clip-path="url(#clip0)">
<path d="M157.391 24.8161L149.187 32.9614H39.8125L31.6094 24.8161H90.6172H98.3828H157.391Z" fill="white"/>
<path d="M139.289 42.7901H108.719L105.656 39.7492H83.3437L80.2812 42.7901H49.6562L43.3672 36.1109H146.016L139.289 42.7901Z" fill="white"/>
<path d="M68.3047 68.7465L63.1094 48.4375L58.2969 46.374H76.6172L68.25 54.7365L68.3047 68.7465Z" fill="white"/>
<path d="M123.156 68.7465L128.297 48.4375L133.164 46.374H114.789L123.211 54.7365L123.156 68.7465Z" fill="white"/>
<path d="M189 6.67917L175.492 10.4803L162.531 19.7117H112.602L125.727 6.67917H189Z" fill="white"/>
<path d="M0 6.67917L13.5078 10.4803L26.4687 19.7117H76.3984L63.2734 6.67917H0Z" fill="white"/>
<path d="M102.812 46.374H86.1875L74.4297 57.5602V73.4164L86.1875 84.6027H102.812L114.57 73.4164V57.5602L102.812 46.374ZM94.5 74.9912C88.9766 74.9912 84.4922 70.7556 84.4922 65.4883C84.4922 60.221 88.9766 55.9855 94.5 55.9855C100.023 55.9855 104.508 60.221 104.508 65.4883C104.508 70.7556 100.023 74.9912 94.5 74.9912Z" fill="white"/>
<path d="M116.648 6.67917L103.523 19.7117H85.4766L72.3516 6.67917H90.6172L94.5 10.5346L98.3828 6.67917H116.648Z" fill="white"/>
<path d="M98.3828 88.6754L94.5 92.5308L90.6172 88.6754H98.3828Z" fill="white"/>
</g>
<defs>
<clipPath id="clip0">
<rect width="189" height="142" fill="white"/>
</clipPath>
</defs>
</svg>
