<svg width="22" height="22" viewBox="0 0 22 22" fill="none" xmlns="http://www.w3.org/2000/svg">
<path d="M9.49435 11.1509C13.0036 11.1507 14.2663 8.04895 14.5968 5.50104C15.004 2.3623 13.3226 0 9.49435 0C5.66658 0 3.98432 2.36212 4.39182 5.50104C4.72269 8.04895 5.98498 11.1511 9.49435 11.1509Z" fill="#FBBC0B"/>
<path d="M17.1677 12.4421C17.2807 12.4421 17.3929 12.4451 17.5043 12.4505C17.3373 12.2402 17.144 12.0547 16.9178 11.9056C16.2434 11.4613 15.3701 11.3156 14.5981 11.0478C14.2223 10.9175 13.8857 10.788 13.5698 10.6406C12.5035 11.6729 11.1131 12.2128 9.49392 12.213C7.87526 12.213 6.48494 11.673 5.4188 10.6406C5.10288 10.788 4.76627 10.9175 4.39053 11.0478C3.61849 11.3156 2.74521 11.4613 2.07085 11.9056C0.904659 12.674 0.603277 14.4026 0.366479 15.5816C0.171055 16.555 0.0397679 17.5482 0.00144865 18.5369C-0.0282376 19.3027 0.400075 19.41 1.12582 19.6412C2.03453 19.9305 2.9728 20.1453 3.91738 20.3214C5.7416 20.6614 7.62197 20.9228 9.49424 20.9344C10.4014 20.9287 11.3105 20.8641 12.2141 20.7607C11.545 19.9049 11.1526 18.8682 11.1526 17.7521C11.1526 14.8241 13.851 12.4421 17.1677 12.4421Z" fill="#FBBC0B"/>
<path d="M17.1677 13.504C14.5101 13.504 12.3556 15.406 12.3556 17.752C12.3556 20.098 14.5101 22 17.1677 22C19.8254 22 21.9799 20.098 21.9799 17.752C21.9799 15.406 19.8253 13.504 17.1677 13.504ZM19.2731 18.4808H17.9934V19.6104C17.9934 20.013 17.6237 20.3393 17.1678 20.3393C16.7118 20.3393 16.3421 20.013 16.3421 19.6104V18.4808H15.0625C14.6065 18.4808 14.2368 18.1545 14.2368 17.7519C14.2368 17.3494 14.6064 17.0231 15.0625 17.0231H16.3421V15.8934C16.3421 15.4909 16.7118 15.1646 17.1678 15.1646C17.6238 15.1646 17.9934 15.4909 17.9934 15.8934V17.0231H19.2731C19.7291 17.0231 20.0987 17.3494 20.0987 17.7519C20.0987 18.1546 19.7291 18.4808 19.2731 18.4808Z" fill="#FBBC0B"/>
</svg>
