<svg width="22" height="22" viewBox="0 0 22 22" fill="none" xmlns="http://www.w3.org/2000/svg">
<path d="M10.8531 0.000999684C4.77838 0.0823037 -0.0798326 5.07318 0.000994087 11.148C0.082299 17.2202 5.07275 22.0798 11.1472 21.999C17.2207 21.9172 22.0798 16.9264 21.999 10.852C21.9177 4.77929 16.927 -0.0800652 10.8531 0.000999684ZM10.8205 17.6956L10.7598 17.6947C9.82431 17.6669 9.16478 16.9778 9.19132 16.0562C9.21739 15.1503 9.89294 14.4927 10.7976 14.4927L10.8519 14.4937C11.8134 14.5221 12.4655 15.2044 12.4385 16.1525C12.4117 17.061 11.7467 17.6956 10.8205 17.6956ZM14.7555 9.8859C14.5355 10.1984 14.0517 10.5865 13.4421 11.0615L12.7709 11.5249C12.4024 11.8114 12.18 12.0809 12.0965 12.3461C12.0308 12.5548 11.9985 12.6101 11.9928 13.0348L11.9918 13.1426H9.42878L9.43619 12.9257C9.46752 12.0342 9.48952 11.5098 9.85898 11.0765C10.4386 10.396 11.7173 9.57264 11.7716 9.53772C11.9547 9.39975 12.1092 9.24264 12.2242 9.07477C12.4933 8.70388 12.6123 8.4119 12.6123 8.12495C12.6123 7.7268 12.4942 7.35854 12.2606 7.03069C12.036 6.71432 11.6094 6.55411 10.9925 6.55411C10.3805 6.55411 9.96157 6.74828 9.71096 7.14667C9.45317 7.5563 9.32285 7.98649 9.32285 8.42601V8.53529H6.6802L6.68498 8.42123C6.75313 6.80256 7.33087 5.63704 8.40147 4.95696C9.07415 4.5239 9.91111 4.30438 10.8877 4.30438C12.1661 4.30438 13.2453 4.615 14.095 5.22765C14.9558 5.84843 15.3925 6.77817 15.3925 7.99104C15.3925 8.66945 15.1782 9.30673 14.7555 9.8859Z" fill="#FBBC0B"/>
</svg>
