<?xml version="1.0" standalone="no"?>
<!DOCTYPE svg PUBLIC "-//W3C//DTD SVG 20010904//EN"
 "http://www.w3.org/TR/2001/REC-SVG-20010904/DTD/svg10.dtd">
<svg version="1.0" xmlns="http://www.w3.org/2000/svg"
 width="500.000000pt" height="500.000000pt" viewBox="0 0 500.000000 500.000000"
 preserveAspectRatio="xMidYMid meet">
<metadata>
Created by potrace 1.11, written by Peter Selinger 2001-2013
</metadata>
<g transform="translate(0.000000,500.000000) scale(0.100000,-0.100000)"
fill="#000000" stroke="none">
<path d="M458 3865 l153 -44 152 -109 152 -109 578 0 c317 0 577 3 577 6 0 3
-66 73 -148 154 l-147 147 -735 -1 -735 0 153 -44z"/>
<path d="M2040 3854 c30 -30 99 -99 153 -152 l97 -97 211 -1 210 -1 150 151
150 151 -212 3 -211 2 -43 -44 -43 -45 -46 44 -46 45 -212 0 -212 0 54 -56z"/>
<path d="M3077 3762 c-81 -82 -147 -151 -147 -154 0 -3 260 -5 578 -5 l577 0
139 101 c77 56 145 105 152 109 8 4 82 27 166 52 l153 44 -735 0 -736 1 -147
-148z"/>
<path d="M1049 3481 c-6 -2 31 -45 83 -97 l93 -94 1274 0 1274 0 93 92 c52 50
94 94 94 97 0 6 -2893 8 -2911 2z"/>
<path d="M1338 3186 c16 -17 49 -52 73 -78 l44 -48 356 0 356 0 37 35 37 35
261 0 260 0 34 -35 34 -35 358 0 358 0 72 73 c39 40 72 75 72 79 0 3 -536 6
-1191 6 l-1191 0 30 -32z"/>
<path d="M1675 2970 c3 -4 24 -15 48 -24 l44 -17 31 -117 c17 -64 43 -169 59
-232 l28 -115 5 161 5 162 94 91 c51 50 92 92 90 92 -14 6 -407 4 -404 -1z"/>
<path d="M2191 2865 c-63 -60 -124 -120 -137 -132 -22 -22 -23 -28 -23 -207
l0 -184 138 -134 138 -133 195 1 194 0 135 132 135 132 1 185 1 185 -109 106
c-181 178 -137 159 -361 159 l-193 1 -114 -111z m404 -139 c94 -43 141 -122
133 -222 -8 -96 -79 -172 -182 -195 -100 -22 -216 34 -257 126 -85 186 118
379 306 291z"/>
<path d="M2980 2970 c0 -3 43 -48 95 -100 l95 -95 -2 -157 c-2 -86 -1 -155 1
-152 2 2 30 106 61 231 l58 227 47 23 c27 12 50 24 51 26 2 2 -88 3 -201 3
-113 0 -205 -3 -205 -6z"/>
<path d="M2454 1934 l48 -46 45 46 44 46 -92 0 -92 0 47 -46z"/>
<path d="M849 1659 c-12 -8 -12 -10 0 -18 19 -12 19 -234 0 -257 -18 -21 -8
-26 60 -25 67 0 92 8 70 22 -11 6 -14 39 -15 129 0 66 3 123 8 126 4 3 8 11 8
17 0 15 -110 20 -131 6z"/>
<path d="M999 1654 c-6 -8 -5 -13 4 -17 10 -4 15 -23 15 -56 2 -45 -1 -51 -19
-51 -12 0 -19 -5 -16 -12 2 -7 10 -13 18 -13 17 0 23 -103 7 -123 -16 -18 -9
-21 60 -23 67 -2 81 3 64 24 -17 20 -18 247 -1 258 8 4 10 12 5 16 -12 12
-126 10 -137 -3z"/>
<path d="M1185 1662 c-2 -3 0 -11 7 -19 18 -22 18 -242 0 -260 -21 -21 -9 -26
59 -24 67 2 89 9 68 22 -20 12 -21 238 -1 262 8 9 11 18 6 18 -35 5 -134 5
-139 1z"/>
<path d="M1431 1657 c-101 -51 -102 -235 -1 -288 36 -20 66 -11 42 13 -15 15
-17 244 -2 253 14 9 12 35 -2 35 -7 0 -24 -6 -37 -13z"/>
<path d="M1500 1654 c0 -9 4 -13 8 -10 13 8 53 -33 64 -66 16 -44 33 -28 33
32 l0 53 -53 3 c-40 2 -52 -1 -52 -12z"/>
<path d="M1655 1662 c-2 -2 2 -14 9 -26 17 -28 15 -238 -2 -259 -11 -13 -5
-16 43 -19 65 -3 108 8 85 22 -21 13 -22 238 -2 263 8 9 13 18 11 18 -11 4
-140 4 -144 1z"/>
<path d="M1814 1658 c-4 -6 -1 -14 5 -18 16 -9 10 -115 -6 -115 -22 0 -24 -13
-4 -20 18 -5 21 -14 21 -59 0 -28 -5 -57 -12 -64 -19 -19 -4 -24 63 -23 67 1
79 5 61 23 -15 15 -17 258 -2 258 6 0 10 6 10 13 0 15 -127 20 -136 5z"/>
<path d="M2196 1655 c-2 -7 4 -47 15 -91 24 -102 24 -104 -7 -104 -16 0 -24
-5 -21 -12 2 -7 14 -13 26 -13 29 -1 47 -31 30 -51 -18 -21 -7 -26 61 -25 68
0 78 4 63 23 -6 7 -25 75 -43 150 l-32 136 -44 -1 c-24 0 -45 -6 -48 -12z"/>
<path d="M2388 1658 c-9 -6 -10 -10 -2 -15 6 -5 29 -69 51 -143 38 -129 41
-135 68 -138 36 -5 45 6 47 54 2 43 -1 59 -27 148 -14 46 -15 64 -6 78 6 10 8
19 4 19 -35 6 -125 4 -135 -3z"/>
<path d="M2565 1661 c-18 -7 -18 -8 -1 -18 15 -8 17 -17 12 -44 -23 -121 -14
-159 13 -59 20 73 33 100 48 100 8 0 13 5 11 11 -5 14 -56 20 -83 10z"/>
<path d="M2675 1659 c-3 -4 -1 -10 5 -14 15 -9 13 -248 -2 -263 -17 -17 -10
-20 58 -23 67 -3 98 7 70 23 -13 8 -16 28 -16 128 0 68 4 121 10 125 6 3 10
12 10 18 0 14 -127 20 -135 6z"/>
<path d="M2941 1656 c-5 -6 0 -44 10 -86 25 -102 24 -110 -7 -110 -16 0 -24
-5 -21 -12 2 -7 15 -13 28 -13 27 0 45 -31 29 -50 -5 -6 -7 -15 -3 -18 10 -11
143 -8 143 2 0 5 -5 11 -11 13 -6 2 -23 57 -39 123 -16 66 -32 129 -34 140 -4
17 -14 21 -46 21 -22 0 -44 -4 -49 -10z"/>
<path d="M3135 1662 c-6 -4 -11 -27 -10 -51 0 -53 22 -68 31 -22 4 17 12 35
20 42 27 23 -11 53 -41 31z"/>
<path d="M3202 1531 c1 -115 -1 -136 -16 -147 -26 -18 -4 -26 70 -26 71 0 88
7 63 26 -14 9 -17 31 -17 116 -1 188 5 168 -51 166 l-50 -1 1 -134z"/>
<path d="M3320 1650 c0 -8 7 -24 15 -34 8 -11 15 -28 15 -38 0 -10 7 -18 15
-18 11 0 15 13 15 53 0 52 0 53 -30 52 -20 0 -30 -5 -30 -15z"/>
<path d="M3414 1658 c-4 -7 -2 -14 4 -16 17 -5 17 -243 0 -260 -19 -19 -4 -24
63 -23 67 1 79 5 61 23 -16 16 -17 258 -1 258 6 0 9 5 7 12 -5 15 -125 21
-134 6z"/>
<path d="M3651 1656 c-88 -49 -94 -219 -11 -277 38 -26 70 -33 70 -16 0 9 -5
17 -12 19 -16 6 -17 224 -1 256 7 13 13 26 13 28 0 9 -36 2 -59 -10z"/>
<path d="M3727 1663 c-4 -3 -1 -13 5 -20 15 -19 18 -241 3 -257 -20 -23 -17
-38 7 -31 70 21 108 75 108 153 0 66 -23 118 -64 143 -33 20 -48 23 -59 12z"/>
<path d="M3891 1661 c-11 -7 -10 -12 5 -27 11 -11 52 -77 92 -147 71 -122 75
-127 107 -127 l32 0 -2 53 c-1 44 -11 68 -59 150 -31 53 -60 97 -64 98 -43 7
-100 6 -111 0z"/>
<path d="M4074 1659 c-4 -7 1 -16 10 -21 11 -6 16 -23 16 -53 0 -87 24 -103
27 -18 2 41 7 61 19 70 10 7 15 15 12 19 -12 11 -77 14 -84 3z"/>
<path d="M2179 1595 c-3 -5 -17 -52 -30 -103 -15 -63 -29 -97 -41 -103 -31
-17 -20 -29 27 -29 46 0 56 9 31 29 -12 10 -12 22 5 83 18 64 23 149 8 123z"/>
<path d="M2910 1554 c-7 -27 -14 -51 -14 -54 -12 -54 -33 -103 -48 -111 -28
-15 -12 -29 33 -29 37 0 51 12 29 25 -15 9 -12 43 10 112 13 41 17 71 11 85
-7 18 -10 15 -21 -28z"/>
<path d="M3910 1493 c0 -68 -4 -94 -15 -103 -26 -21 -17 -30 30 -30 49 0 53 4
28 32 -12 14 -17 38 -17 93 -1 44 -6 79 -14 87 -9 9 -12 -7 -12 -79z"/>
<path d="M1494 1508 c-4 -6 -2 -13 5 -17 16 -10 19 -86 4 -107 -7 -10 -13 -22
-13 -26 0 -10 46 0 83 19 24 12 27 19 27 61 0 27 5 53 12 60 7 7 8 12 3 13
-73 6 -116 5 -121 -3z"/>
<path d="M2252 1233 c-37 -15 -47 -100 -15 -135 30 -34 38 -21 38 62 0 44 -2
80 -5 79 -3 0 -11 -3 -18 -6z"/>
<path d="M2290 1229 c0 -5 4 -9 9 -9 5 0 13 -9 16 -20 9 -29 22 -24 23 9 0 24
-3 29 -24 29 -13 0 -24 -4 -24 -9z"/>
<path d="M2364 1160 l1 -75 51 -1 c49 -2 50 -1 52 30 l2 31 -24 -30 c-14 -16
-26 -25 -27 -20 -5 37 -3 112 4 122 10 15 -4 23 -35 21 -24 -2 -24 -5 -24 -78z"/>
<path d="M2485 1174 c3 -67 16 -94 46 -94 14 0 16 5 10 28 -8 32 -8 103 1 118
4 6 -7 10 -27 11 l-33 1 3 -64z"/>
<path d="M2570 1231 c0 -5 4 -12 9 -15 13 -9 5 -107 -10 -117 -7 -4 -10 -11
-6 -15 14 -14 34 30 36 77 0 26 2 53 3 60 2 7 -5 15 -14 17 -10 2 -18 -1 -18
-7z"/>
<path d="M2636 1228 c8 -13 8 -123 1 -136 -4 -5 7 -9 23 -10 32 -1 32 -2 32
95 0 52 -5 61 -37 61 -13 0 -22 -5 -19 -10z"/>
<path d="M2706 1233 c-3 -3 -1 -14 5 -25 8 -14 7 -24 -2 -34 -8 -9 -9 -18 -3
-22 12 -9 14 -52 2 -52 -5 0 -7 -4 -3 -9 7 -13 46 -5 57 11 12 19 10 34 -7 48
-13 11 -13 14 0 27 19 19 19 27 -1 44 -18 14 -40 20 -48 12z"/>
<path d="M2320 1117 c0 -9 -7 -17 -15 -17 -8 0 -15 -4 -15 -10 0 -14 11 -12
34 5 16 12 17 18 8 27 -9 9 -12 8 -12 -5z"/>
</g>
</svg>
